<?xml version="1.0" encoding="UTF-8"?>
<svg xmlns="http://www.w3.org/2000/svg"
     viewBox="82 17 388 498"
     preserveAspectRatio="none">
  <defs>
    <linearGradient id="ilyGrad" x1="0%" y1="40%" x2="100%" y2="100%">
      <stop offset="50%" stop-color="#5181A6"/>
      <stop offset="100%" stop-color="#22c98a"/>
    </linearGradient>
  </defs>
  <g transform="translate(0.000000,545.280000) scale(0.024000,-0.024000)" fill="url(#ilyGrad)" stroke="url(#ilyGrad)" stroke-width="900" stroke-linejoin="round" stroke-linecap="round" paint-order="stroke">
    <path d="M12275 20520 c-38 -11 -108 -24 -155 -30 -60 -8 -106 -21 -155 -45
-38 -19 -95 -45 -125 -60 -55 -25 -117 -63 -201 -120 -59 -40 -239 -221 -280
-282 -18 -26 -37 -51 -42 -54 -14 -10 -96 -176 -127 -259 -15 -41 -35 -95 -44
-119 -9 -24 -21 -87 -26 -140 -6 -56 -10 -936 -10 -2113 0 -1285 -4 -2026 -10
-2042 -5 -14 -17 -26 -26 -26 -9 0 -31 8 -48 19 -17 10 -54 26 -83 35 -28 10
-63 26 -77 37 -13 10 -66 28 -118 39 -51 10 -129 28 -172 40 -60 15 -111 20
-211 20 -89 0 -148 -5 -181 -15 -27 -8 -94 -24 -149 -35 -59 -12 -119 -32
-150 -49 -27 -15 -68 -34 -90 -41 -48 -15 -157 -77 -203 -115 -18 -15 -50 -39
-73 -54 -48 -33 -205 -203 -262 -286 -23 -33 -51 -80 -62 -105 -10 -25 -29
-61 -42 -80 -12 -19 -31 -69 -42 -110 -12 -41 -29 -82 -39 -92 -9 -10 -31 -20
-47 -24 -24 -4 -38 1 -69 25 -21 17 -57 36 -80 42 -22 6 -75 26 -116 44 -53
24 -97 35 -150 40 -41 4 -114 13 -163 22 -96 17 -167 15 -372 -11 -140 -18
-183 -28 -230 -56 -16 -10 -50 -23 -75 -30 -25 -6 -66 -25 -93 -42 -45 -29
-48 -29 -72 -14 -24 16 -24 16 -28 1294 -2 1161 -4 1282 -20 1332 -9 30 -23
110 -30 177 -11 94 -20 132 -40 167 -14 25 -35 74 -47 110 -11 35 -28 70 -36
77 -9 7 -25 31 -36 53 -51 101 -228 301 -313 354 -22 13 -49 33 -61 43 -34 31
-144 97 -234 140 -73 35 -113 46 -285 76 -196 35 -202 36 -305 24 -221 -26
-341 -51 -433 -92 -48 -21 -91 -39 -96 -39 -4 0 -26 -13 -48 -29 -22 -16 -55
-37 -74 -46 -59 -31 -141 -97 -229 -187 -105 -106 -141 -150 -170 -208 -12
-25 -31 -54 -41 -66 -11 -11 -30 -48 -43 -82 -14 -35 -36 -76 -49 -91 -18 -22
-25 -45 -30 -97 -3 -38 -16 -105 -28 -149 -11 -44 -25 -101 -30 -126 -14 -67
-4 -8470 9 -8629 6 -69 16 -181 22 -250 6 -69 17 -305 24 -525 10 -282 19
-416 29 -455 33 -122 47 -224 56 -405 8 -164 13 -199 35 -257 26 -68 46 -193
46 -286 0 -34 12 -90 34 -155 22 -67 38 -140 46 -211 8 -83 17 -119 36 -151
16 -28 29 -76 40 -151 10 -65 26 -128 40 -156 13 -25 32 -86 43 -135 11 -48
33 -117 50 -153 17 -36 31 -79 31 -96 0 -18 14 -58 31 -90 17 -32 37 -88 45
-124 9 -36 26 -83 39 -105 13 -23 31 -70 40 -105 9 -36 29 -87 45 -115 15 -27
33 -70 40 -95 6 -25 22 -63 34 -85 13 -22 33 -73 45 -112 12 -40 30 -87 41
-105 10 -18 29 -69 41 -113 12 -44 32 -100 44 -125 13 -25 28 -78 34 -118 6
-41 22 -99 35 -130 13 -31 27 -70 30 -87 8 -40 36 -386 36 -452 0 -34 10 -77
31 -130 17 -43 40 -90 50 -105 24 -33 195 -118 239 -118 17 0 50 11 73 24 23
13 56 27 74 31 22 4 48 24 82 64 28 32 56 71 63 87 8 21 12 90 10 239 -2 238
-15 371 -43 452 -10 31 -26 104 -35 162 -9 63 -27 132 -43 171 -16 36 -34 94
-40 130 -7 36 -23 85 -37 109 -13 24 -33 75 -45 115 -11 39 -29 85 -39 101
-10 17 -25 54 -34 83 -8 29 -28 77 -44 105 -16 29 -35 75 -41 102 -7 28 -24
69 -37 93 -14 24 -34 75 -45 114 -11 39 -31 89 -44 112 -13 23 -29 68 -35 101
-7 33 -23 82 -37 108 -13 26 -31 80 -40 120 -9 40 -27 97 -40 127 -14 30 -33
99 -44 153 -10 54 -28 115 -38 135 -10 21 -27 87 -36 147 -9 61 -30 148 -45
195 -15 47 -31 121 -35 165 -7 75 -26 170 -59 291 -8 27 -17 95 -21 150 -9
144 -24 253 -40 304 -18 55 -32 189 -40 370 -8 205 -24 397 -48 585 -22 170
-22 170 -22 4645 0 4475 0 4475 22 4516 12 22 29 69 38 104 10 40 29 79 48
103 52 62 165 177 175 177 5 0 26 13 46 29 21 17 61 37 89 47 29 9 78 27 109
40 48 20 75 24 164 24 97 0 115 -3 221 -40 68 -23 134 -54 163 -75 26 -19 52
-35 57 -35 14 0 128 -121 166 -177 19 -29 40 -75 46 -103 6 -28 23 -78 38
-113 28 -62 28 -62 34 -3422 5 -2484 9 -3378 18 -3429 7 -37 20 -85 30 -105
10 -20 26 -74 35 -120 9 -52 25 -99 41 -123 14 -21 34 -61 46 -90 11 -28 32
-66 47 -84 15 -18 45 -57 67 -86 45 -59 189 -205 256 -259 24 -20 60 -44 79
-54 19 -9 44 -26 55 -36 11 -10 43 -28 70 -40 28 -12 66 -33 86 -46 21 -13 68
-29 115 -38 43 -7 105 -23 136 -34 74 -27 237 -40 363 -30 55 4 141 19 190 32
50 14 110 29 134 32 25 4 76 24 115 44 39 20 85 42 101 49 37 15 125 70 184
114 56 42 233 220 286 288 68 87 83 100 111 100 37 0 100 -32 147 -73 20 -19
56 -40 79 -47 24 -7 55 -23 71 -36 15 -13 47 -28 70 -34 23 -6 65 -20 92 -31
28 -12 66 -27 85 -34 50 -18 350 -28 511 -16 122 8 142 12 195 40 32 17 83 35
112 42 29 6 65 21 81 34 15 13 52 33 81 45 30 12 69 34 87 51 19 16 37 29 42
29 22 0 248 225 271 271 10 19 26 42 35 49 9 8 30 41 47 74 17 34 39 72 49 85
11 13 24 42 30 65 6 22 24 68 40 101 15 33 34 87 40 120 10 46 14 1046 18
4400 6 4340 6 4340 39 4460 37 132 81 214 161 298 58 60 175 141 236 161 25 9
65 26 88 39 38 20 56 22 192 22 139 0 153 -2 195 -24 24 -13 68 -32 98 -42 60
-21 102 -52 199 -149 106 -107 121 -126 138 -186 9 -32 29 -81 43 -109 27 -50
27 -50 30 -4988 2 -4533 1 -4942 -14 -4973 -9 -19 -44 -56 -78 -82 -33 -27
-110 -93 -171 -146 -221 -194 -283 -246 -294 -246 -7 0 -43 -30 -202 -168 -46
-40 -102 -88 -124 -107 -22 -18 -63 -53 -91 -77 -27 -24 -76 -63 -109 -88 -32
-25 -101 -82 -154 -127 -134 -115 -160 -138 -206 -178 -105 -90 -133 -113
-165 -136 -19 -13 -48 -36 -65 -51 -16 -15 -57 -51 -90 -80 -33 -28 -66 -63
-74 -77 -8 -14 -24 -39 -37 -54 -34 -41 -47 -101 -40 -181 5 -58 13 -79 46
-128 23 -34 61 -74 92 -95 51 -36 57 -37 151 -41 54 -2 108 -1 121 2 12 3 40
19 62 35 51 39 138 109 175 141 15 14 56 48 90 75 83 68 167 138 209 175 35
30 189 161 265 224 22 18 58 49 80 68 22 19 57 47 78 63 21 16 53 42 72 59 18
17 77 67 130 111 54 44 121 100 149 125 28 25 74 63 101 85 28 22 68 55 90 73
22 18 58 49 80 67 22 19 60 51 85 73 49 43 300 253 393 329 32 27 79 66 105
89 26 23 74 63 108 90 86 70 208 173 348 294 130 112 228 190 267 210 13 7 41
28 62 46 20 19 43 34 51 34 8 0 36 16 62 36 26 20 61 42 78 49 17 8 39 22 49
33 10 10 37 27 60 38 23 10 55 27 71 38 34 24 106 63 186 101 30 14 86 41 124
61 38 20 90 42 117 50 26 8 61 26 78 39 19 16 53 30 100 38 42 8 87 25 112 41
27 18 64 31 107 37 36 5 107 24 157 42 90 32 90 32 340 32 239 0 253 -1 310
-24 33 -13 97 -34 142 -46 46 -13 95 -32 110 -43 16 -11 52 -30 81 -42 29 -13
57 -31 62 -40 5 -10 34 -31 63 -48 93 -53 307 -297 307 -350 0 -23 -121 -121
-234 -189 -16 -10 -45 -33 -63 -50 -18 -18 -51 -42 -73 -53 -21 -11 -42 -24
-45 -30 -3 -6 -23 -19 -43 -29 -20 -10 -53 -34 -73 -52 -19 -19 -48 -42 -65
-52 -79 -48 -209 -138 -270 -189 -25 -21 -49 -38 -54 -38 -4 0 -26 -15 -48
-33 -23 -17 -60 -44 -84 -59 -24 -16 -70 -48 -103 -73 -33 -25 -82 -61 -110
-80 -27 -19 -77 -55 -110 -79 -33 -25 -83 -58 -111 -75 -29 -17 -57 -38 -64
-46 -6 -8 -32 -26 -56 -40 -24 -14 -44 -30 -44 -35 0 -5 -15 -17 -32 -26 -18
-9 -78 -50 -133 -90 -112 -83 -146 -107 -223 -160 -66 -44 -173 -151 -316
-314 -60 -69 -125 -141 -145 -161 -20 -20 -56 -60 -81 -88 -25 -28 -57 -64
-71 -79 -15 -15 -122 -135 -238 -267 -188 -213 -300 -337 -396 -441 -16 -18
-51 -57 -77 -86 -25 -29 -82 -93 -125 -143 -115 -130 -150 -180 -169 -238 -9
-29 -25 -68 -35 -88 -10 -19 -27 -72 -38 -117 -11 -44 -29 -98 -40 -120 -11
-21 -29 -75 -40 -120 -11 -44 -30 -100 -42 -123 -11 -23 -30 -85 -40 -137 -11
-52 -28 -109 -38 -126 -10 -17 -27 -71 -36 -121 -10 -49 -29 -117 -42 -149
-14 -32 -31 -98 -39 -145 -9 -47 -28 -118 -44 -157 -17 -42 -33 -109 -40 -165
-7 -58 -20 -115 -36 -148 -13 -30 -29 -85 -34 -123 -6 -37 -15 -100 -20 -139
-6 -39 -20 -89 -32 -112 -15 -30 -26 -85 -38 -198 -12 -104 -27 -182 -44 -232
-22 -63 -28 -105 -36 -253 -7 -125 -18 -210 -37 -293 -23 -100 -27 -138 -27
-281 0 -161 1 -167 31 -240 17 -41 32 -80 34 -87 2 -6 30 -34 61 -61 51 -45
65 -51 128 -62 56 -9 86 -9 138 0 37 7 81 18 97 25 29 11 96 90 126 145 9 17
17 108 25 275 8 171 19 281 33 350 11 55 27 166 36 248 8 81 26 191 39 245 13
53 34 157 46 231 12 74 28 151 36 170 9 20 24 86 35 146 10 61 30 144 44 185
14 40 34 120 45 177 11 57 26 116 34 131 8 15 24 68 35 117 21 87 31 124 119
410 22 72 46 155 52 185 7 30 19 67 26 82 8 15 30 76 49 135 18 59 50 154 69
211 34 98 39 107 140 225 58 67 121 138 139 157 44 44 254 285 367 420 47 56
97 114 111 129 14 14 70 76 124 136 53 61 107 120 119 131 11 12 48 54 81 94
107 130 268 313 330 373 33 32 80 70 105 83 45 25 115 71 180 119 174 128 231
168 272 190 26 13 51 31 55 38 4 7 49 39 98 72 50 32 106 72 126 89 20 17 58
45 85 61 26 17 68 43 93 59 25 15 60 40 77 55 17 14 44 34 60 44 39 23 121 79
164 112 45 33 94 67 150 104 25 16 61 41 80 56 47 35 96 69 150 104 25 16 59
40 75 54 17 13 44 31 60 40 17 8 39 25 50 37 11 12 36 31 55 41 38 21 117 74
165 111 16 13 47 35 70 49 22 14 47 34 55 44 8 10 34 26 58 36 69 30 143 101
180 172 17 35 32 78 32 96 0 17 -9 50 -21 73 -12 23 -27 57 -34 77 -7 20 -29
60 -49 90 -20 29 -36 59 -36 66 0 13 -19 38 -108 145 -16 19 -37 51 -47 70
-31 61 -210 253 -301 322 -119 91 -200 148 -239 169 -22 12 -53 31 -69 42 -58
41 -202 108 -266 124 -36 9 -97 29 -136 44 -140 56 -470 77 -784 51 -175 -14
-294 -35 -360 -63 -25 -10 -71 -23 -103 -28 -32 -6 -86 -22 -120 -37 -34 -14
-91 -35 -126 -46 -36 -11 -75 -26 -86 -34 -12 -8 -53 -25 -92 -38 -39 -13 -97
-38 -130 -54 -32 -17 -105 -53 -163 -82 -58 -29 -123 -63 -145 -77 -74 -45
-160 -96 -205 -120 -25 -14 -52 -31 -60 -38 -8 -7 -31 -20 -50 -30 -19 -10
-53 -30 -75 -46 -22 -16 -76 -55 -120 -86 -78 -56 -214 -169 -285 -237 -34
-33 -113 -66 -126 -53 -4 3 -10 26 -15 49 -4 24 -8 2112 -9 4641 0 3093 -4
4631 -11 4699 -18 176 -124 454 -225 588 -18 25 -48 65 -66 89 -71 95 -196
202 -299 256 -21 11 -51 32 -66 47 -15 14 -54 33 -85 42 -31 9 -60 21 -63 26
-14 23 -69 41 -167 55 -57 8 -136 24 -177 35 -98 26 -249 26 -346 0z m-1715
-5763 c30 -14 75 -31 100 -37 25 -6 61 -24 80 -39 19 -15 49 -35 65 -44 40
-21 114 -100 162 -171 21 -32 46 -70 55 -84 9 -14 20 -44 24 -66 3 -23 18 -68
33 -101 26 -60 26 -60 29 -1757 2 -1697 2 -1697 -33 -1790 -68 -178 -72 -184
-204 -315 -75 -74 -104 -96 -145 -109 -28 -9 -65 -29 -83 -44 -28 -25 -41 -29
-139 -35 -59 -4 -158 -5 -219 -3 -112 5 -112 5 -221 64 -88 48 -126 76 -199
149 -50 50 -97 106 -105 125 -7 19 -26 53 -42 75 -15 22 -33 63 -40 90 -8 37
-12 482 -15 1708 -2 998 0 1707 6 1779 9 119 10 123 61 222 54 103 99 160 182
231 89 75 110 88 201 123 159 59 174 62 287 58 87 -3 115 -8 160 -29z m-2040
-792 c30 -15 79 -36 108 -46 30 -10 69 -31 88 -46 72 -57 157 -139 169 -163 7
-14 25 -38 39 -55 14 -16 32 -48 40 -70 8 -22 27 -69 43 -105 28 -65 28 -65
28 -1620 0 -1555 0 -1555 -53 -1660 -63 -125 -86 -158 -157 -225 -89 -84 -134
-117 -188 -137 -28 -11 -64 -28 -79 -39 -35 -25 -122 -39 -248 -39 -115 0
-207 14 -230 35 -9 8 -44 26 -76 39 -64 25 -82 39 -209 163 -64 64 -95 105
-136 180 -54 98 -54 98 -57 1663 -2 861 0 1584 3 1607 3 23 18 59 32 80 14 21
32 55 39 77 8 21 30 57 50 80 118 137 216 218 284 236 25 6 64 23 88 36 23 14
61 29 85 34 23 5 96 8 162 6 108 -3 125 -6 175 -31z"/>
  </g>
</svg>
