<?xml version="1.0" encoding="UTF-8" standalone="no"?>
<svg
   width="527"
   height="554"
   viewBox="0 0 4216 4432"
   version="1.1"
   id="svg4"
   sodipodi:docname="LogoSVG.svg"
   inkscape:version="1.4.3 (0d15f75, 2025-12-25)"
   xmlns:inkscape="http://www.inkscape.org/namespaces/inkscape"
   xmlns:sodipodi="http://sodipodi.sourceforge.net/DTD/sodipodi-0.dtd"
   xmlns="http://www.w3.org/2000/svg"
   xmlns:svg="http://www.w3.org/2000/svg">
  <defs
     id="defs4" />
  <sodipodi:namedview
     id="namedview4"
     pagecolor="#ffffff"
     bordercolor="#000000"
     borderopacity="0.25"
     inkscape:showpageshadow="2"
     inkscape:pageopacity="0.0"
     inkscape:pagecheckerboard="0"
     inkscape:deskcolor="#d1d1d1"
     inkscape:zoom="2.1064982"
     inkscape:cx="345.3599"
     inkscape:cy="283.6461"
     inkscape:window-width="2374"
     inkscape:window-height="1211"
     inkscape:window-x="951"
     inkscape:window-y="40"
     inkscape:window-maximized="0"
     inkscape:current-layer="svg4" />
  <!-- navy arrow -->
  <g
     transform="translate(0.000000,4432.000000) scale(0.100000,-0.100000)"
     fill="#154269"
     stroke="none"
     id="g1">
    <path
       d="m 32512,43670 c -36.752,-5.422 -51.313,-61.61 -51.649,-98.758 -0.617,-68.292 57.158,-124.297 91.649,-183.242 39.641,-67.747 87.284,-130.491 132,-195 64.967,-93.724 128.759,-188.387 198,-279 48.459,-63.416 101.219,-123.427 152,-185 34.004,-41.231 68.254,-82.261 102.242,-123.506 28.592,-34.697 58.25,-68.555 85.542,-104.283 27.976,-36.623 53.749,-74.883 80.07,-112.713 31.347,-45.053 60.482,-91.648 92.714,-136.071 41.152,-56.717 87.339,-109.667 128.432,-166.427 33.777,-46.655 63.002,-96.506 97,-143 24.519,-33.531 62.379,-59.074 77.065,-97.93 15.944,-42.181 10.826,-90.093 7.573,-135.07 -3.459,-47.835 -1.127,-101.715 -28.638,-141 -91.919,-131.259 -264.036,-184.876 -410,-251 -193.321,-87.578 -412.217,-107.073 -608,-189 -154.49,-64.647 -294.181,-160.193 -443,-237 -66.5,-34.321 -135.801,-63.269 -201,-100 -58.091,-32.726 -114.23,-68.977 -169,-107 -57.064,-39.616 -109.406,-85.714 -166,-126 -44.06,-31.364 -88.915,-61.694 -135,-90 -89.028,-54.682 -185.937,-96.241 -273,-154 -169.9,-112.714 -318.091,-255.49 -484,-374 -42.064,-30.047 -85.526,-58.145 -129.494,-85.33 -22.444,-13.877 -45.354,-27.009 -68.506,-39.67 -63.832,-34.906 -132.806,-60.653 -194,-100 -50.313,-32.351 -93.173,-75.076 -141,-111 -853.265,-640.894 8.175,-1.782 -936,-678 -150.053,-107.468 -247.446,-275.213 -387,-396 -152.719,-132.181 -156.424,-123.614 -274.427,-235.824 -66.973,-63.684 -142.998,-113.961 -214.93,-170.392 -62.548,-49.07 -123.925,-99.731 -188.392,-146.251 -76.529,-55.226 -158.798,-102.202 -235.251,-157.533 -64.064,-46.365 -128.85,-92.404 -187,-146 -156.289,-144.049 -287.81,-312.842 -432,-469 -37.284,-40.379 -72.823,-82.455 -112,-121 -257.449,-253.302 -547.053,-472.262 -807,-723 -243.822,-235.185 -499.658,-462.564 -705,-732 -30.078,-39.466 -48.236,-86.874 -76,-128 -27.735,-41.083 -58.642,-80 -90.211,-118.216 -37.491,-45.385 -80.293,-86.213 -117.643,-131.714 -35.954,-43.8 -66.734,-91.66 -102.291,-135.783 -29.418,-36.505 -61.39,-70.878 -91.785,-106.574 -29.742,-34.929 -60.558,-76.471 -88.638,-105.286 -68.432,-70.219 -112.962,-155.703 -172.929,-230.859 -37.716,-47.27 -78.071,-92.374 -117.427,-138.287 -107.868,-125.837 -215.573,-251.831 -325.357,-376 -112.554,-127.302 -237.918,-243.747 -341.719,-378.281 -33.83,-43.846 -60.564,-92.734 -91,-139 -25.913,-39.391 -51.923,-78.718 -78,-118 -26.588,-40.052 -53.439,-79.93 -80,-120 -29.116,-43.924 -56.476,-89.043 -87,-132 -37.189,-52.335 -81.065,-99.796 -117,-153 -43.164,-63.907 -78.421,-132.813 -118,-199 -39.754,-66.481 -76.368,-134.997 -120,-199 -35.489,-52.057 -78.574,-98.594 -115,-150 -29.239,-41.263 -56.618,-83.855 -83,-127 -57.869,-94.638 -107.971,-193.854 -165,-289 -63.76,-106.375 -139.595,-205.594 -198,-315 -163.994,-307.199 -220.115,-423.38 -427,-778 -28.047,-48.076 -66.305,-90.119 -91,-140 -39.575,-79.937 -57.652,-168.876 -90,-252 -41.985,-107.889 -88.388,-214.028 -135,-320 -45.761,-104.039 -96.84,-205.698 -142,-310 -17.167,-39.649 -32.81,-79.942 -49,-120 -16.816,-41.607 -33.858,-83.127 -50,-125 -12.405,-32.18 -42.619,-63.153 -36,-97 12.407,-63.443 297.319,151.423 543,313 86.613,60.186 160.308,137.51 246,199 70.851,50.841 154.538,83.543 221,140 314.408,267.077 170.91,152.646 281.106,249.93 97.838,86.375 192.824,170.802 291.894,253.07 39.97,33.191 79.283,67.428 122,97 85.92,59.481 183.287,101.222 269,161 76.219,53.157 145.254,115.946 217,175 75.626,62.247 153.863,121.669 225,189 545.347,516.171 559.539,519.582 858,799 128.273,120.088 252.874,244.315 386,359 382.488,329.502 -0.994,-12.841 363,327 54.81,51.173 129.243,76.703 189,122 67.372,51.07 125.566,113.27 190,168 671.191,570.104 134.104,128.637 653.854,592 297.99,265.661 239.899,161.589 645.081,399.136 206.892,121.295 173.211,96.403 235.135,133.643 276.234,166.12 256.073,159.305 377.93,219.221 82.401,39.773 160.531,87.943 239,135 83.667,50.174 162.504,108.236 247,157 45.583,26.307 95.083,45.572 140,73 36.941,22.557 72.189,47.976 106,75 35.031,27.999 64.424,62.696 100,90 82,62.933 171.889,114.953 260,169 86.311,52.943 175.677,100.744 263,152 67.937,39.877 135.302,80.72 203,121 147.978,88.046 285.104,171.289 444.141,263.789 65.696,38.211 132.674,65.085 195.859,103.211 61.588,37.163 117.465,83.145 178,122 52.342,33.597 105.579,65.886 160,96 57.914,32.047 118.009,59.982 177,90 108.017,54.966 215.833,110.329 324,165 205.019,103.624 410.359,206.615 616,309 113.831,56.674 230.366,108.112 342,169 68.906,37.583 130.624,88.352 202,121 320.617,146.654 281.382,115.239 450,204 76.231,40.128 163.815,54.072 243,88 92.08,39.453 177.989,92.139 269,134 428.148,196.929 105.976,85.09 649.011,296.472 61.553,23.96 125.612,51.082 187.919,77.809 42.244,18.122 83.991,37.382 126.035,55.965 64.273,28.409 129.665,54.379 192.965,84.895 63.797,30.755 121.442,74.844 188.07,98.859 75.956,27.377 157.932,33.657 237,50 110.241,22.786 218.894,77.223 331,67 168.469,-15.363 341.176,-80.54 471,-189 96.212,-80.379 135.903,-210.782 199.925,-318.573 25.71,-43.288 51.835,-86.473 73.929,-131.713 20.1,-41.157 33.954,-85.126 53.146,-126.714 47.41,-102.734 102.504,-201.747 153,-303 55.22,-110.726 105.431,-224.009 164,-333 45.68,-85.007 97.18,-166.756 146,-250 49.512,-84.424 97.383,-169.846 149,-253 21.21,-34.17 30.771,-81.601 66,-101 39.715,-21.869 96.234,-23.777 136,-2 139.114,76.182 178.783,263.095 250.351,404.638 32.562,64.399 49.664,135.742 80.748,200.868 39.2,82.132 90.39,158.025 132.901,238.494 28.201,53.382 54.131,107.935 81,162 54.934,110.534 108.926,221.536 164,332 104.561,209.72 211.564,418.217 316,628 55.142,110.765 108.763,222.283 164,333 77.864,156.07 163.633,308.307 236,467 53.036,116.302 89.311,239.945 145,355 15.764,32.57 36.348,62.597 53.352,94.537 18.591,34.922 35.102,70.916 53.181,106.106 34.488,67.133 68.459,134.58 105.467,200.357 39.075,69.452 84.863,135.028 123,205 59.214,108.642 107.152,223.101 164,333 87.991,170.104 184.049,335.924 274,505 40.965,77 85.056,152.531 121,232 30.485,67.4 52.624,138.278 80,207 66.938,168.032 139.574,333.764 206,502 139.757,353.959 184.761,397.58 426,828 37.512,66.929 -98.627,51.631 -310,103 -58.018,14.1 -114.468,34.031 -172,50 -51.497,14.294 -102.904,29.074 -155,41 -64.872,14.851 -130.735,24.984 -196,38 -66.739,13.31 -133.071,28.684 -200,41 -79.388,14.608 -159.324,26.057 -239,39 -78.324,12.723 -156.55,26.08 -235,38 -74.895,11.38 -150.222,19.873 -225,32 -57.933,9.395 -115.398,21.49 -173.216,31.568 -36.88,6.428 -73.931,11.853 -110.784,18.432 -71.823,12.821 -143.175,28.193 -215,41 -80.168,14.295 -160.207,29.813 -241,40 -243.938,30.759 -490.755,34.224 -734.859,63.638 -115.054,13.864 -217.678,37.23 -343.573,53.141 -74.576,9.425 -158.236,19.416 -236.854,32.432 -43.121,7.139 -85.556,18.116 -128.714,25.031 -65.023,10.417 -131,14.199 -196,24.758 -67.43,10.954 -134.006,26.635 -201,40 -66.673,13.301 -133.366,26.507 -200,40 -66.699,13.507 -133.071,28.684 -200,41 -79.388,14.608 -159.382,25.704 -239,39 -80.05,13.369 -159.627,29.733 -240,41 -261.529,36.662 -524.764,60.065 -787.528,86.461 -104.78,10.526 -210.3,14.271 -314.618,28.675 -64.853,8.954 -128.152,27.654 -193.107,35.842 -49.304,6.215 -99.468,3.61 -148.747,10.022 -65.994,8.587 -130.76,24.86 -196,38 -67.1,13.514 -133.096,33.396 -201,42 -200.942,25.462 -421.873,55.31 -607,28 z"
       id="path1"
       sodipodi:nodetypes="saaaaaaaaaaaaaaaaaaaaaaaaaassssaaaaaaaaaaaaasaaaaaaaaaaaaaassaaaaaaaaassaaaassssasssssaaaaaaaasaaaaaaassassaaaaaaaaaaaaaaaaaaaaaaaaaaaaaaaaasssaaaaaaaaaaaasaaaaaaaaaaaaaas" />
  </g>
  <!-- bill paper -->
  <g
     transform="translate(0.000000,4432.000000) scale(0.100000,-0.100000)"
     fill="#FFFFFF"
     stroke="none"
     id="g2">
    <path
       d="M38745 35618 c-16 -6 -136 -13 -265 -17 -232 -8 -236 -8 -319 -40 -67 -25 -109 -34 -200 -41 -90 -6 -135 -16 -200 -40 -65 -24 -111 -33 -200 -40 -93 -7 -133 -15 -201 -41 -85 -33 -85 -33 -520 -39 -435 -6 -435 -6 -520 -39 -78 -30 -98 -34 -240 -41 -140 -7 -163 -11 -240 -40 -77 -29 -100 -33 -240 -40 -138 -7 -164 -11 -239 -39 -66 -25 -110 -34 -200 -41 -91 -7 -134 -15 -201 -41 -81 -30 -94 -32 -280 -39 -186 -7 -199 -9 -279 -39 -66 -25 -109 -34 -200 -41 -93 -7 -133 -15 -201 -41 -85 -33 -85 -33 -480 -39 -395 -6 -395 -6 -480 -39 -82 -33 -91 -34 -280 -41 -186 -7 -199 -9 -279 -39 -66 -25 -109 -34 -200 -41 -91 -7 -134 -15 -201 -40 -76 -29 -101 -33 -240 -40 -140 -7 -163 -11 -240 -40 -77 -29 -100 -33 -240 -40 -141 -7 -163 -11 -240 -41 -85 -33 -85 -33 -400 -39 -315 -6 -315 -6 -400 -39 -82 -32 -91 -34 -280 -41 -227 -9 -291 -26 -378 -104 -58 -51 -57 -42 -62 -546 -6 -540 2 -499 -117 -622 -115 -118 -145 -128 -253 -83 -70 29 -79 30 -190 10 -47 -9 -110 -20 -140 -26 -30 -5 -112 -36 -181 -69 -70 -33 -152 -65 -183 -70 -31 -6 -82 -15 -113 -20 -32 -6 -114 -37 -183 -69 -69 -33 -152 -67 -185 -76 -33 -9 -96 -30 -140 -47 -71 -27 -98 -31 -235 -38 -165 -8 -189 -14 -308 -74 -112 -57 -163 -74 -253 -86 -186 -26 -239 -97 -239 -323 1 -134 9 -168 80 -317 56 -116 110 -287 110 -348 0 -38 -35 -94 -97 -153 -97 -95 -110 -98 -268 -70 -138 25 -195 -3 -396 -196 -106 -102 -177 -163 -228 -192 -40 -24 -114 -79 -163 -122 -49 -43 -121 -97 -159 -120 -38 -22 -108 -74 -155 -115 -98 -85 -121 -98 -221 -129 -48 -15 -95 -40 -140 -73 -37 -27 -97 -67 -132 -87 -35 -21 -104 -73 -154 -117 -50 -44 -114 -93 -144 -110 -148 -84 -153 -131 -37 -358 51 -99 81 -143 145 -214 94 -103 104 -124 118 -234 14 -111 26 -134 123 -245 46 -53 97 -120 113 -149 15 -29 55 -88 87 -132 75 -100 113 -175 154 -303 25 -81 44 -119 92 -185 33 -46 68 -99 77 -118 10 -19 44 -70 77 -114 32 -43 68 -97 80 -120 11 -22 46 -75 78 -117 44 -58 61 -93 75 -145 35 -135 103 -259 204 -374 90 -102 97 -113 242 -402 144 -286 152 -301 238 -398 103 -117 155 -208 200 -356 30 -98 34 -105 122 -205 82 -95 100 -122 196 -314 63 -125 130 -242 165 -289 32 -43 70 -100 83 -127 14 -27 65 -94 115 -150 74 -83 102 -126 156 -233 37 -72 94 -167 126 -210 33 -44 88 -137 123 -207 53 -105 81 -146 155 -230 86 -98 91 -106 120 -199 33 -106 42 -120 200 -285 75 -78 95 -108 154 -225 38 -74 95 -170 127 -212 31 -42 71 -103 88 -135 19 -35 82 -112 156 -191 119 -127 126 -136 146 -205 61 -210 100 -274 292 -474 103 -107 173 -188 191 -223 16 -30 56 -90 88 -134 32 -43 70 -100 83 -127 14 -27 65 -94 115 -150 75 -84 101 -125 165 -249 76 -147 76 -147 238 -317 145 -150 168 -179 211 -263 93 -180 148 -233 247 -234 110 -2 155 103 124 284 -24 131 -22 134 149 308 216 220 235 223 393 59 75 -78 84 -92 103 -159 12 -40 34 -107 50 -149 16 -41 34 -114 40 -162 6 -50 23 -118 40 -160 16 -40 33 -110 39 -155 20 -157 71 -205 196 -183 38 7 99 17 135 22 62 9 227 60 390 120 41 15 113 33 159 39 45 6 118 24 161 40 43 16 115 34 160 40 45 6 119 25 163 42 77 29 93 31 277 38 184 7 199 9 277 38 44 17 118 36 163 42 45 6 118 25 163 41 61 22 108 32 192 38 111 8 210 36 445 122 41 15 111 32 155 38 76 11 244 62 410 124 80 31 80 31 355 37 299 7 294 6 428 74 112 57 163 74 252 86 45 6 118 25 163 41 61 22 108 32 192 38 111 8 208 35 445 122 41 15 95 32 120 39 25 6 81 25 125 43 80 31 80 31 350 37 294 6 292 6 605 121 41 15 113 33 159 39 45 6 118 24 161 40 43 16 113 33 156 39 75 11 242 61 409 124 78 30 86 31 315 37 231 7 236 7 317 38 44 17 118 36 163 42 45 6 117 24 160 40 43 16 115 34 160 40 45 6 117 24 160 40 43 16 113 33 156 39 73 11 229 58 404 122 41 15 113 33 159 39 188 26 241 96 241 320 0 146 -11 185 -82 282 -79 109 -280 510 -313 626 -14 48 -37 114 -50 147 -13 33 -28 96 -34 140 -12 96 -24 132 -85 253 -25 51 -58 134 -73 185 -14 50 -36 115 -48 142 -12 28 -28 75 -35 105 -7 30 -41 116 -76 190 -78 167 -83 190 -84 370 0 172 -11 222 -76 352 -61 122 -72 153 -84 253 -6 46 -23 113 -39 152 -15 37 -34 93 -41 123 -7 30 -26 87 -41 125 -15 39 -33 109 -39 157 -6 49 -22 115 -39 155 -15 37 -34 93 -41 123 -7 30 -27 89 -43 130 -29 72 -31 83 -37 270 -6 188 -7 198 -38 275 -17 44 -36 103 -43 130 -7 28 -25 82 -40 120 -15 39 -33 110 -39 158 -6 52 -23 118 -42 164 -29 71 -32 91 -38 233 -6 141 -10 162 -39 240 -27 69 -34 107 -41 200 -6 92 -14 132 -40 200 -25 68 -33 108 -40 200 -6 95 -14 130 -41 200 -34 85 -34 85 -39 640 -5 555 -5 555 -39 640 -35 85 -35 85 -41 360 -6 275 -6 275 -40 360 -34 85 -34 85 -40 400 -6 315 -6 315 -40 400 -34 85 -34 85 -40 440 -6 355 -6 355 -40 440 -34 85 -34 85 -40 520 -5 435 -5 435 -40 520 -35 85 -35 85 -40 950 -5 944 -2 891 -62 947 -52 48 -157 67 -233 41z"
       id="path2" />
  </g>
  <!-- green borders & circle -->
  <g
     transform="translate(0.000000,4432.000000) scale(0.100000,-0.100000)"
     fill="#379B31"
     stroke="none"
     id="g3">
    <path
       d="M38760 35618 c-19 -5 -143 -13 -275 -17 -237 -8 -241 -8 -324 -40 -67 -25 -109 -34 -200 -41 -90 -6 -135 -16 -200 -40 -65 -24 -111 -33 -200 -40 -93 -7 -133 -15 -201 -41 -85 -33 -85 -33 -520 -39 -435 -6 -435 -6 -520 -39 -78 -30 -98 -34 -240 -41 -140 -7 -163 -11 -240 -40 -77 -29 -100 -33 -240 -40 -137 -7 -164 -11 -236 -38 -45 -17 -130 -38 -192 -47 -61 -9 -150 -27 -199 -41 -74 -22 -119 -27 -288 -33 -191 -8 -204 -10 -284 -40 -66 -25 -109 -34 -200 -41 -93 -7 -133 -15 -201 -41 -85 -33 -85 -33 -480 -39 -395 -6 -395 -6 -480 -39 -82 -33 -91 -34 -280 -41 -186 -7 -199 -9 -279 -39 -66 -25 -109 -34 -200 -41 -91 -7 -134 -15 -201 -40 -76 -29 -101 -33 -240 -40 -140 -7 -163 -11 -240 -40 -77 -29 -100 -33 -240 -40 -141 -7 -163 -11 -240 -41 -85 -33 -85 -33 -400 -39 -315 -6 -315 -6 -400 -39 -82 -32 -91 -34 -280 -41 -235 -9 -323 -36 -394 -121 -44 -51 -46 -80 -46 -574 0 -470 0 -470 36 -570 36 -98 37 -104 44 -295 6 -190 8 -197 40 -280 34 -85 34 -85 40 -360 6 -275 6 -275 40 -360 32 -83 33 -90 40 -280 6 -188 8 -198 39 -280 27 -69 34 -107 41 -200 6 -95 14 -130 41 -200 34 -85 34 -85 39 -600 5 -515 5 -515 39 -600 33 -83 34 -89 41 -280 6 -189 8 -198 40 -280 30 -78 33 -98 40 -240 6 -142 10 -162 40 -240 30 -78 33 -98 40 -240 6 -142 10 -162 40 -240 30 -78 33 -98 40 -240 6 -141 10 -163 39 -240 27 -69 34 -107 41 -200 6 -94 14 -130 41 -200 33 -85 33 -85 39 -400 6 -315 6 -315 39 -400 31 -79 34 -97 41 -240 6 -148 8 -159 44 -250 33 -81 39 -111 46 -210 6 -83 15 -136 35 -190 19 -54 29 -107 35 -190 6 -90 14 -133 39 -197 17 -46 35 -121 41 -168 6 -52 23 -115 43 -162 32 -78 32 -78 37 -393 6 -315 6 -315 39 -400 27 -70 34 -106 41 -205 7 -98 15 -134 41 -200 26 -66 32 -100 39 -200 7 -98 14 -133 39 -195 17 -45 34 -111 41 -163 6 -50 23 -118 40 -160 16 -41 34 -110 40 -160 6 -50 23 -118 40 -160 16 -41 34 -110 40 -160 6 -54 23 -116 43 -164 32 -78 32 -78 37 -438 5 -360 5 -360 32 -421 15 -34 36 -94 47 -133 11 -40 32 -102 47 -138 20 -52 28 -93 34 -182 6 -98 13 -130 43 -206 19 -49 40 -119 47 -155 6 -36 22 -103 35 -150 14 -47 29 -118 35 -159 21 -148 49 -165 264 -159 136 5 159 8 236 35 47 17 100 34 119 38 18 4 64 20 101 35 37 15 112 38 166 50 55 12 127 30 162 41 34 10 101 23 147 29 47 6 122 24 168 41 75 29 96 32 257 39 170 7 177 8 245 41 61 29 84 34 180 40 87 6 128 14 194 38 65 25 110 34 196 40 111 8 210 36 445 122 41 15 111 32 155 38 76 11 244 62 410 124 80 31 80 31 355 37 299 7 294 6 428 74 112 57 163 74 252 86 45 6 118 25 163 41 61 23 108 32 198 39 92 7 131 14 181 36 89 38 243 90 341 114 45 12 118 35 162 52 78 30 87 31 310 39 298 10 329 14 411 43 38 13 89 30 114 36 25 6 79 24 120 40 41 16 113 34 159 40 45 6 118 24 161 40 43 16 113 33 156 39 75 11 242 61 409 124 78 30 86 31 315 37 231 7 236 7 317 38 44 17 118 36 163 42 45 6 117 24 160 40 43 16 115 34 160 40 45 6 117 24 160 40 43 16 113 33 156 39 73 11 229 58 404 122 41 15 113 33 159 39 188 26 241 96 241 320 0 146 -11 185 -82 282 -79 109 -280 510 -313 626 -14 48 -37 114 -50 147 -13 33 -28 96 -34 140 -12 96 -24 132 -85 253 -25 51 -58 134 -73 185 -14 50 -36 115 -48 142 -12 28 -28 75 -35 105 -7 30 -41 116 -76 190 -78 167 -83 190 -84 370 0 172 -11 222 -76 352 -61 122 -72 153 -84 253 -6 46 -23 113 -39 152 -15 37 -34 93 -41 123 -7 30 -26 87 -41 125 -15 39 -33 109 -39 157 -6 49 -22 115 -39 155 -15 37 -34 93 -41 123 -7 30 -27 89 -43 130 -29 72 -31 83 -37 270 -6 188 -7 198 -38 275 -17 44 -36 103 -43 130 -7 28 -25 82 -40 120 -15 39 -33 110 -39 158 -6 52 -23 118 -42 164 -29 71 -32 91 -38 233 -6 141 -10 162 -39 240 -27 69 -34 107 -41 200 -6 92 -14 132 -40 200 -25 68 -33 108 -40 200 -6 95 -14 130 -41 200 -34 85 -34 85 -39 640 -5 555 -5 555 -39 640 -35 85 -35 85 -41 360 -6 275 -6 275 -40 360 -34 85 -34 85 -40 400 -6 315 -6 315 -40 400 -34 85 -34 85 -40 440 -6 355 -6 355 -40 440 -34 85 -34 85 -40 520 -5 435 -5 435 -40 520 -35 85 -35 85 -40 900 -6 911 2 831 -87 948 -71 96 -109 113 -193 90z m-1729 -1398 c66 -19 120 -100 168 -255 75 -245 342 -420 682 -445 151 -12 206 -39 252 -125 22 -40 22 -45 27 -835 5 -795 5 -795 40 -880 34 -85 34 -85 40 -400 6 -315 6 -315 40 -400 33 -85 33 -85 40 -320 6 -235 6 -235 40 -320 34 -85 34 -85 40 -360 6 -275 6 -275 40 -360 32 -83 33 -90 40 -280 6 -191 7 -197 40 -280 34 -85 34 -85 40 -440 6 -355 6 -355 39 -440 27 -70 34 -106 41 -200 6 -91 14 -132 39 -197 17 -46 35 -121 41 -168 6 -48 23 -117 40 -158 16 -41 34 -110 40 -160 6 -50 23 -118 40 -160 16 -41 34 -110 40 -160 6 -50 23 -118 40 -160 16 -41 34 -110 40 -160 6 -53 23 -117 42 -164 31 -75 32 -84 38 -273 6 -187 8 -199 38 -277 17 -46 36 -120 42 -167 6 -47 23 -114 39 -153 15 -37 34 -93 41 -123 7 -30 25 -84 40 -120 15 -36 33 -90 40 -120 7 -30 25 -84 40 -120 15 -36 33 -90 40 -120 7 -30 26 -89 43 -130 27 -68 31 -89 37 -230 6 -141 10 -162 38 -235 17 -44 38 -107 46 -140 9 -33 27 -87 41 -120 60 -145 -7 -270 -205 -385 -218 -127 -320 -314 -320 -590 0 -282 0 -282 -415 -290 -300 -6 -300 -6 -382 -37 -44 -18 -118 -37 -163 -43 -45 -6 -117 -24 -160 -40 -43 -16 -115 -34 -160 -40 -45 -6 -118 -25 -163 -41 -61 -23 -108 -32 -196 -39 -89 -6 -135 -16 -198 -39 -44 -16 -118 -35 -163 -41 -45 -6 -117 -24 -160 -40 -43 -16 -115 -34 -160 -40 -45 -6 -119 -25 -163 -42 -82 -31 -82 -31 -357 -38 -275 -6 -275 -6 -357 -38 -44 -17 -118 -36 -163 -42 -45 -6 -117 -24 -160 -40 -43 -16 -115 -34 -160 -40 -45 -6 -117 -24 -160 -40 -43 -16 -115 -34 -160 -40 -45 -6 -118 -25 -163 -41 -61 -23 -108 -32 -196 -39 -90 -6 -135 -16 -200 -40 -65 -24 -111 -33 -200 -40 -92 -7 -134 -15 -201 -41 -84 -32 -87 -32 -320 -39 -218 -6 -240 -8 -300 -32 -157 -61 -218 -39 -261 91 -65 198 -160 324 -318 421 -46 28 -118 81 -160 119 -104 94 -140 110 -264 121 -146 12 -183 31 -208 109 -6 20 -27 77 -47 126 -33 84 -35 100 -42 245 -6 140 -10 163 -38 237 -17 46 -36 121 -42 168 -6 49 -23 117 -41 162 -25 62 -33 98 -39 192 -6 94 -14 132 -40 201 -25 68 -33 108 -40 200 -6 94 -14 130 -41 200 -33 85 -33 85 -39 360 -6 275 -6 275 -39 360 -27 69 -34 106 -41 200 -6 92 -14 132 -40 200 -25 68 -33 108 -40 200 -6 93 -14 131 -40 200 -30 77 -33 99 -40 240 -6 141 -10 163 -39 240 -27 69 -34 107 -41 200 -6 92 -14 132 -40 200 -25 68 -33 108 -40 200 -6 95 -14 130 -41 200 -33 85 -33 85 -39 480 -6 395 -6 395 -39 480 -27 70 -34 106 -41 200 -6 93 -14 131 -40 200 -32 82 -33 92 -40 280 -6 189 -8 198 -40 280 -30 78 -33 98 -40 240 -7 143 -10 162 -40 240 -34 85 -34 85 -40 360 -6 275 -6 275 -40 360 -32 83 -33 90 -40 280 -7 191 -7 197 -41 280 -34 85 -34 85 -39 725 -5 636 -5 640 -27 693 -65 152 13 246 274 331 163 53 183 72 269 244 31 62 83 150 116 196 48 66 67 103 91 180 94 307 170 344 716 351 396 6 396 6 481 39 78 30 99 34 240 41 141 7 163 11 240 40 85 33 86 33 320 40 234 7 235 7 320 39 77 30 99 34 240 41 140 7 163 11 240 40 82 31 93 33 280 40 189 7 197 8 280 41 85 33 85 33 480 39 395 6 395 6 480 39 82 33 91 34 280 41 186 7 199 9 279 39 66 25 109 34 200 41 64 5 136 16 161 26 112 42 142 47 191 34z M34585 30714 c-11 -3 -65 -20 -120 -39 -55 -18 -124 -41 -153 -49 -28 -9 -133 -57 -232 -106 -99 -49 -225 -103 -279 -120 -112 -34 -120 -40 -326 -240 -66 -64 -146 -134 -178 -155 -65 -42 -93 -79 -162 -214 -40 -77 -69 -116 -172 -225 -164 -174 -223 -283 -244 -451 -6 -44 -23 -111 -38 -150 -16 -38 -34 -95 -41 -125 -7 -30 -26 -86 -41 -123 -16 -38 -33 -105 -39 -151 -5 -44 -26 -126 -45 -181 -54 -156 -54 -934 0 -1090 19 -55 39 -134 44 -175 12 -91 25 -128 85 -248 56 -112 76 -184 76 -277 0 -123 53 -255 162 -399 32 -43 70 -100 83 -127 14 -27 66 -94 115 -150 87 -98 91 -105 120 -201 38 -122 99 -194 231 -273 51 -30 125 -89 189 -149 160 -151 406 -293 585 -339 39 -9 117 -40 175 -68 150 -73 172 -79 301 -89 93 -7 132 -16 200 -42 128 -50 429 -50 556 -1 44 17 118 37 162 43 97 13 123 22 261 89 58 28 137 58 175 68 261 66 457 204 828 582 218 222 218 222 430 649 129 258 218 449 225 482 7 30 27 91 44 135 24 64 32 103 39 195 6 93 15 134 43 215 55 154 55 616 0 770 -28 81 -37 122 -43 215 -7 92 -15 131 -39 195 -17 44 -37 105 -44 135 -19 82 -169 380 -237 471 -58 77 -81 135 -81 208 0 101 -83 250 -175 316 -89 64 -117 99 -185 236 -71 141 -109 186 -204 241 -47 28 -122 91 -225 191 -173 166 -211 190 -325 206 -93 13 -145 35 -218 90 -51 38 -187 91 -388 151 -36 10 -96 31 -135 47 -67 26 -670 48 -760 27z M28885 33029 c-22 -5 -97 -37 -167 -69 -69 -33 -150 -64 -180 -70 -29 -5 -80 -14 -113 -20 -34 -6 -114 -36 -185 -69 -69 -33 -152 -67 -185 -76 -33 -9 -96 -30 -140 -47 -71 -27 -98 -31 -235 -38 -165 -8 -189 -14 -308 -74 -113 -57 -163 -74 -253 -86 -176 -24 -236 -92 -225 -254 14 -236 22 -280 61 -367 21 -46 51 -124 67 -174 17 -49 43 -124 59 -165 15 -41 35 -104 44 -139 9 -35 40 -112 70 -171 62 -123 79 -180 95 -305 11 -87 50 -247 91 -370 11 -33 31 -96 45 -140 14 -44 38 -114 54 -155 16 -41 35 -97 41 -125 7 -27 40 -104 74 -170 38 -76 67 -149 79 -200 10 -44 32 -113 48 -153 22 -56 31 -100 39 -190 17 -200 34 -267 108 -421 16 -36 38 -96 48 -135 10 -40 59 -154 112 -261 112 -228 118 -243 131 -351 6 -48 24 -116 41 -161 26 -63 33 -98 39 -192 6 -93 13 -132 38 -196 17 -44 36 -102 43 -130 6 -27 40 -111 75 -185 35 -74 72 -169 84 -210 11 -41 47 -131 80 -200 67 -141 79 -185 80 -286 0 -89 18 -147 85 -284 29 -60 61 -142 72 -182 10 -43 58 -155 116 -272 54 -110 109 -238 123 -285 14 -48 36 -113 49 -146 13 -33 28 -96 34 -140 13 -103 22 -127 121 -325 46 -91 98 -211 116 -267 25 -79 44 -119 87 -177 40 -55 59 -94 73 -143 9 -37 30 -100 45 -138 15 -39 32 -106 38 -150 13 -107 19 -121 165 -413 79 -159 135 -284 151 -340 14 -48 37 -114 50 -147 13 -34 29 -101 35 -150 13 -109 76 -250 162 -362 45 -57 60 -87 78 -153 13 -51 60 -160 120 -280 97 -196 105 -218 128 -375 19 -123 158 -384 272 -508 89 -98 120 -155 120 -221 0 -150 143 -186 212 -54 29 57 38 283 14 363 -25 84 -77 236 -107 316 -15 41 -33 114 -39 162 -6 53 -23 117 -42 164 -31 77 -32 81 -38 293 -5 215 -5 215 -39 285 -29 61 -34 84 -41 180 -5 88 -13 127 -38 191 -18 47 -36 118 -42 169 -7 53 -22 115 -39 154 -15 36 -34 91 -41 121 -7 30 -26 87 -41 125 -15 39 -33 109 -39 158 -6 52 -23 118 -42 164 -27 70 -32 94 -39 229 -8 160 -21 247 -44 315 -8 22 -23 77 -34 122 -11 45 -31 107 -44 137 -13 30 -30 80 -37 110 -19 80 -36 115 -96 206 -49 73 -55 88 -64 162 -6 45 -24 115 -40 155 -16 41 -34 110 -40 160 -6 52 -23 118 -42 164 -28 71 -32 92 -38 233 -8 170 -13 186 -84 327 -25 51 -57 132 -71 180 -14 49 -36 115 -50 148 -13 33 -31 87 -40 121 -8 34 -25 85 -38 115 -13 30 -30 79 -37 109 -7 30 -26 89 -43 130 -27 67 -31 91 -37 230 -8 170 -13 186 -84 327 -25 51 -57 132 -71 180 -14 49 -52 144 -85 213 -33 69 -69 160 -80 203 -12 43 -32 101 -44 130 -13 29 -29 77 -36 107 -7 30 -26 88 -43 129 -23 60 -31 97 -37 190 -6 93 -13 132 -38 196 -17 44 -38 107 -46 141 -9 34 -26 85 -39 115 -13 30 -30 79 -37 109 -7 30 -41 109 -74 175 -40 77 -68 148 -80 200 -10 44 -31 109 -46 145 -15 36 -33 90 -40 120 -7 30 -26 88 -42 128 -21 53 -31 102 -38 180 -6 59 -14 131 -19 159 -20 126 27 318 103 418 92 121 141 232 157 360 6 44 23 112 39 152 17 42 34 110 40 161 18 144 81 229 237 320 142 83 163 131 163 375 0 148 -1 155 -35 252 -20 56 -42 146 -51 205 -24 174 -51 226 -132 263 -53 23 -193 32 -257 16z M26600 31259 c-103 -18 -136 -41 -360 -254 -48 -46 -121 -103 -168 -131 -76 -44 -118 -82 -207 -186 -21 -24 -52 -43 -101 -62 -53 -20 -93 -46 -159 -102 -99 -84 -133 -104 -224 -130 -44 -12 -87 -35 -140 -74 -42 -30 -93 -66 -113 -78 -20 -13 -59 -49 -87 -81 -35 -40 -74 -71 -131 -102 -257 -141 -262 -155 -139 -398 57 -113 83 -151 150 -225 94 -102 104 -124 118 -234 14 -111 26 -134 123 -245 46 -53 97 -120 113 -149 15 -29 55 -88 87 -132 75 -100 113 -175 154 -303 25 -81 44 -119 92 -185 33 -46 68 -99 77 -118 10 -19 44 -70 77 -114 32 -43 68 -97 80 -120 11 -22 46 -75 78 -117 44 -58 61 -93 75 -145 33 -126 79 -209 165 -294 77 -76 77 -76 254 -428 173 -344 178 -354 265 -452 99 -112 154 -206 197 -340 25 -80 31 -88 105 -158 99 -94 122 -128 153 -224 36 -108 165 -363 218 -428 24 -30 59 -77 78 -105 18 -27 63 -79 100 -115 59 -58 76 -84 160 -250 51 -102 119 -220 152 -264 32 -43 68 -97 80 -120 52 -102 153 -258 218 -336 63 -75 74 -94 100 -181 33 -105 42 -119 200 -284 75 -78 95 -108 154 -225 38 -74 95 -170 127 -212 31 -42 71 -103 88 -135 19 -35 82 -112 156 -191 119 -127 126 -136 146 -205 50 -173 94 -248 185 -313 73 -52 115 -98 145 -157 12 -23 48 -77 81 -121 32 -43 68 -97 80 -120 11 -22 47 -76 80 -120 32 -43 70 -100 83 -127 14 -27 65 -94 115 -150 75 -84 101 -125 165 -249 76 -147 76 -147 238 -317 142 -147 169 -180 209 -258 87 -168 127 -205 222 -205 133 0 179 90 95 187 -42 47 -42 47 -36 131 7 100 -1 125 -69 216 -67 87 -199 361 -220 453 -22 98 -88 231 -157 318 -31 39 -70 95 -86 125 -16 30 -54 87 -84 127 -43 56 -59 88 -76 152 -12 44 -30 99 -41 123 -10 24 -28 79 -40 123 -35 127 -107 256 -204 362 -96 107 -146 195 -192 340 -25 81 -44 118 -92 185 -33 46 -89 142 -126 213 -54 106 -82 147 -151 224 -76 84 -87 101 -106 165 -59 203 -207 483 -319 601 -98 104 -153 215 -169 342 -13 102 -20 119 -90 216 -32 45 -68 101 -80 124 -12 24 -62 88 -111 144 -81 91 -93 110 -111 173 -42 146 -89 240 -171 350 -79 105 -275 496 -317 632 -30 98 -34 105 -122 205 -89 102 -93 110 -276 474 -130 260 -203 394 -245 449 -75 100 -192 331 -233 463 -26 81 -45 119 -93 185 -33 46 -86 135 -117 198 -32 63 -81 147 -110 185 -106 141 -100 230 21 331 184 154 203 188 204 367 0 115 -3 136 -30 218 -16 49 -32 113 -35 142 -4 29 -13 87 -21 130 -20 103 -14 127 49 179 28 24 80 73 116 109 36 36 82 76 101 89 142 94 165 165 105 335 -19 55 -39 118 -45 141 -5 22 -37 78 -69 123 -58 80 -81 139 -81 207 0 120 -117 240 -218 223 -4 -1 -32 -5 -62 -10z"
       id="path3" />
  </g>
  <!-- purple figure -->
  <g
     transform="translate(0.000000,4432.000000) scale(0.100000,-0.100000)"
     fill="#6134D2"
     stroke="none"
     id="g4">
    <path
       d="m 9541,40633 c -36.4715,-4.824 -69.403,-24.71 -105,-34 -64.1391,-16.738 -130.6002,-23.294 -195,-39 -98.0856,-23.921 -195.598,-50.963 -291,-84 -56.0933,-19.425 -109.3565,-46.322 -165,-67 -47.8231,-17.772 -96.0563,-34.598 -145,-49 -52.4289,-15.427 -107.1782,-22.643 -159,-40 -75.4942,-25.286 -149.8292,-55.386 -220,-93 -42.6153,-22.843 -82.0598,-51.337 -121,-80 -66.203,-48.73 -126.4637,-105.083 -191,-156 -69.0888,-54.509 -139.6637,-107.111 -210,-160 -73.3191,-55.132 -153.9387,-101.406 -221,-164 -59.6276,-55.656 -106.7463,-123.37 -159,-186 -50.3936,-60.401 -102.4526,-119.588 -149,-183 -33.3164,-45.387 -64.98,-92.165 -93,-141 -90.6586,-158.006 -168.1816,-323.459 -242,-490 -26.1365,-58.966 -48.6672,-119.491 -71,-180 -30.1488,-81.686 -60.1951,-163.536 -85,-247 -17.1351,-57.657 -36.5073,-115.32 -44,-175 -47.9592,-382.004 -62.7214,-774.502 -4,-1155 8.0071,-51.883 31.642,-100.116 48,-150 14.3533,-43.771 31.1064,-86.777 44,-131 13.9396,-47.81 20.4169,-97.7 36,-145 24.5032,-74.375 57.611,-145.704 90,-217 46.6134,-102.607 91.4834,-206.684 150,-303 70.5852,-116.181 158.0954,-221.264 241,-329 53.051,-68.941 105.5538,-138.57 164,-203 74.1163,-81.705 155.7951,-156.263 236,-232 70.3459,-66.427 140.4939,-133.275 215,-195 57.9093,-47.975 116.445,-95.802 180,-136 87.6994,-55.469 184.3223,-95.387 276,-144 137.824,-73.082 263.2092,-175.12 412,-222 63.0569,-19.868 131.5405,-13.729 197,-23 80.3022,-11.373 159.8504,-27.598 240,-40 93.172,-14.417 186.6499,-26.784 280,-40 92.6502,-13.117 199,-9 278,-39 104,-39 140,-39 244,0 74,27 100,32 238,39 140,7 163,11 240,40 76,29 101,33 240,40 199,10 288,43 453,168 38,29 162,99 276,157 263,132 410,256 548,461 29,43 61,73 106,103 79,51 176,151 207,211 12,25 49,82 82,128 48,66 67,104 92,185 40,125 76,198 154,305 44,61 64,99 78,150 9,37 28,91 41,121 13,30 32,86 42,125 11,39 33,109 50,156 31,85 31,85 31,760 0,764 4,723 -80,890 -27,55 -61,139 -75,187 -36,123 -90,233 -161,329 -48,64 -65,97 -79,151 -51,201 -165,360 -322,451 -83,49 -134,104 -153,164 -33,111 -37,115 -200,184 -30,13 -93,65 -190,158 -228,219 -315,271 -502,296 -46,7 -117,24 -158,40 -41,15 -106,37 -145,49 -38,11 -113,41 -165,67 -138,67 -163,74 -291,84 -92,7 -133,16 -200,42 -81,31 -413.5222,58.049 -618,31 z m 11998,-627 c -31,-12 -94,-51 -139,-85 -46,-34 -119,-80 -163,-103 -124,-62 -153,-85 -211,-167 -61,-86 -125,-150 -209,-205 -38,-26 -72,-60 -99,-100 -23,-33 -61,-85 -86,-115 -24,-30 -55,-77 -68,-103 -35,-70 -88,-123 -164,-168 -73,-43 -128,-97 -159,-159 -11,-22 -43,-69 -71,-106 -27,-36 -68,-92 -90,-124 -21,-33 -56,-69 -77,-82 -66,-41 -123,-100 -165,-173 -31,-54 -99,-130 -277,-311 -199,-203 -242,-253 -276,-315 -48,-91 -347,-402 -458,-477 -48,-32 -81,-65 -110,-107 -22,-34 -60,-85 -85,-115 -24,-30 -54,-76 -68,-103 -32,-64 -75,-110 -146,-160 -38,-27 -77,-68 -112,-117 -65,-91 -288,-313 -369,-366 -39,-25 -72,-58 -99,-99 -23,-33 -58,-81 -78,-106 -20,-25 -55,-73 -78,-106 -23,-34 -58,-72 -79,-85 -64,-40 -123,-100 -163,-168 -42,-71 -79,-111 -152,-160 -26,-17 -64,-52 -84,-77 -21,-25 -58,-59 -83,-76 -74,-50 -120,-98 -163,-173 -53,-91 -204,-246 -272,-279 -28,-14 -77,-36 -108,-50 -62,-26 -78,-49 -113,-154 -22,-70 -110,-164 -202,-217 -94,-55 -137,-97 -185,-179 -55,-94 -208,-251 -296,-302 -93,-54 -136,-96 -184,-178 -71,-121 -204,-235 -277,-236 -65,-1 -147,-67 -203,-165 -50,-86 -197,-238 -290,-301 -50,-34 -82,-67 -122,-123 -74,-105 -214,-237 -312,-295 -51,-30 -126,-91 -201,-161 -72,-67 -150,-130 -194,-156 -41,-23 -95,-60 -122,-80 -26,-21 -84,-59 -129,-86 -62,-37 -127,-92 -277,-239 -146,-142 -215,-201 -271,-234 -41,-24 -102,-64 -135,-90 -33,-25 -80,-59 -104,-75 -23,-16 -60,-54 -81,-85 -57,-84 -105,-122 -247,-194 -71,-36 -155,-86 -188,-112 -33,-25 -90,-64 -128,-86 -37,-21 -97,-61 -132,-88 -36,-27 -123,-79 -193,-114 -70,-36 -154,-86 -187,-112 -33,-25 -90,-64 -128,-86 -37,-21 -98,-62 -135,-90 -85,-65 -362,-201 -455,-225 -97,-24 -403,-177 -496,-248 -137,-104 -234,-143 -385,-154 -112,-8 -212,-36 -446,-122 -41,-15 -113,-33 -159,-39 -45,-6 -118,-24 -161,-40 -43,-16 -115,-34 -160,-40 -45,-6 -119,-25 -163,-42 -77,-29 -93,-31 -277,-38 -190,-7 -197,-8 -280,-41 -131,-53 -827,-53 -960,-1 -69,27 -107,35 -201,42 -88,7 -135,16 -196,39 -45,16 -119,35 -164,41 -46,6 -118,24 -159,39 -102,38 -281,98 -362,121 -38,11 -96,31 -130,44 -84,31 -267,92 -353,117 -105,30 -221,89 -305,153 -83,63 -248,148 -324,165 -73,18 -115,43 -209,125 -48,41 -118,93 -156,115 -38,23 -110,76 -158,119 -49,43 -125,100 -170,127 -115,68 -661,615 -712,713 -18,35 -72,108 -120,162 -47,53 -103,129 -124,167 -25,46 -81,115 -162,201 -124,132 -124,132 -155,231 -29,95 -34,103 -121,202 -72,84 -103,129 -156,234 -36,71 -92,165 -123,207 -46,61 -62,92 -76,150 -26,102 -171,392 -245,491 -75,100 -122,192 -154,304 -14,48 -48,135 -76,193 -29,58 -66,151 -84,207 -26,80 -45,119 -93,185 -77,107 -195,343 -227,455 -86,304 -365,605 -560,607 -220,1 -375,-151 -406,-397 -5,-43 -23,-114 -39,-158 -38,-101 -38,-137 1,-241 24,-65 33,-107 39,-198 6,-93 14,-131 40,-200 30,-77 33,-99 40,-240 6,-139 10,-163 38,-237 17,-46 36,-121 42,-167 6,-47 23,-114 39,-153 15,-37 34,-93 41,-123 7,-30 26,-87 41,-125 15,-39 33,-109 39,-157 6,-49 22,-115 39,-155 15,-37 34,-93 41,-123 7,-30 25,-84 40,-120 15,-36 33,-90 40,-120 7,-30 27,-89 44,-130 30,-74 30,-77 36,-310 6,-234 6,-235 37,-315 18,-44 37,-102 44,-130 7,-27 25,-82 40,-120 15,-39 33,-109 39,-157 6,-49 22,-115 39,-155 15,-37 34,-93 41,-123 7,-30 25,-84 40,-120 15,-36 33,-90 40,-120 7,-30 27,-89 43,-130 29,-72 31,-83 37,-270 6,-187 8,-199 38,-277 17,-46 36,-120 42,-167 6,-47 23,-114 39,-153 15,-37 34,-93 41,-123 7,-30 25,-84 40,-120 15,-36 33,-90 40,-120 7,-30 26,-87 41,-125 15,-39 33,-109 39,-157 6,-49 22,-115 39,-155 15,-37 34,-93 41,-123 7,-30 27,-89 44,-130 30,-74 30,-77 36,-310 6,-234 6,-235 37,-315 18,-44 37,-102 44,-130 7,-27 25,-83 42,-124 23,-60 31,-98 37,-190 6,-93 13,-132 38,-196 17,-44 36,-102 43,-130 7,-27 25,-83 42,-124 23,-60 31,-98 37,-190 6,-95 14,-131 41,-201 32,-85 32,-85 39,-320 6,-233 7,-236 38,-317 18,-47 36,-120 42,-168 6,-48 23,-117 40,-158 16,-41 34,-110 40,-160 6,-51 23,-118 41,-164 25,-62 33,-98 39,-192 6,-94 14,-132 40,-201 25,-68 33,-108 40,-200 6,-92 14,-132 40,-200 25,-68 33,-108 40,-200 6,-95 14,-130 41,-200 33,-85 33,-85 39,-440 6,-355 6,-355 39,-440 31,-79 34,-97 41,-240 7,-142 10,-162 40,-240 32,-82 33,-91 40,-280 6,-190 7,-197 40,-280 34,-85 34,-85 40,-400 6,-315 6,-315 40,-400 34,-85 34,-85 40,-520 5,-435 5,-435 40,-520 35,-85 35,-85 40,-6680 5,-6595 5,-6595 40,-6680 35,-85 35,-85 40,-1600 5,-1515 5,-1515 40,-1600 34,-85 34,-85 40,-440 6,-355 6,-355 40,-440 34,-85 34,-85 40,-360 6,-275 6,-275 38,-357 18,-47 36,-120 42,-168 6,-48 23,-117 40,-158 16,-41 34,-110 40,-160 6,-51 23,-118 41,-164 25,-62 33,-99 39,-192 9,-138 12,-145 129,-380 116,-231 131,-253 207,-307 60,-43 99,-82 157,-157 51,-67 69,-72 277,-72 207,0 213,2 325,85 27,21 77,54 111,74 89,51 127,99 149,182 26,102 87,227 157,323 48,65 68,104 85,163 12,42 31,99 42,125 12,26 32,87 46,136 14,48 46,129 71,180 78,153 76,148 84,407 6,234 6,235 38,313 19,47 36,111 42,164 6,50 24,119 40,160 17,42 34,110 40,160 6,50 24,119 40,160 17,42 34,110 40,160 6,50 24,119 40,160 17,42 34,110 40,160 6,48 24,119 39,158 15,38 33,93 40,120 7,28 26,86 43,130 31,77 32,87 38,275 6,189 7,197 38,273 19,46 36,111 42,162 6,47 24,122 41,168 25,65 33,106 39,198 6,94 14,130 39,192 18,46 35,113 41,164 6,50 24,119 40,160 17,41 34,110 40,158 6,48 24,121 42,168 31,81 32,84 38,317 6,235 6,235 38,313 19,46 36,110 42,161 12,99 23,133 80,246 63,126 71,154 80,281 6,93 14,130 39,192 18,46 35,113 41,164 6,48 24,119 39,158 15,38 33,93 40,120 7,28 26,86 44,130 31,80 31,80 37,355 6,275 6,275 36,350 17,41 37,100 44,130 7,30 26,86 41,123 17,40 33,106 39,155 6,49 24,118 40,159 17,42 34,110 40,160 6,48 24,119 39,158 15,38 33,93 40,120 7,28 26,86 44,130 31,80 31,81 37,315 6,235 6,235 38,313 19,47 36,111 42,164 6,48 24,119 39,158 15,38 33,93 40,120 7,28 26,86 43,130 25,64 32,103 38,196 6,93 14,130 37,190 17,41 36,99 43,129 7,30 26,86 41,123 16,39 33,106 39,153 6,46 25,121 42,167 28,74 32,97 38,237 6,142 9,162 38,233 19,46 36,112 42,164 6,50 24,119 40,160 17,42 34,110 40,160 6,49 24,119 39,158 15,38 34,95 41,125 7,30 23,78 36,107 12,29 32,85 43,125 38,140 112,278 149,278 28,0 69,-56 91,-124 12,-37 83,-189 157,-337 144,-289 164,-344 164,-454 0,-106 16,-148 201,-517 114,-229 177,-366 194,-426 14,-48 36,-114 50,-147 13,-33 31,-87 40,-121 8,-34 25,-85 38,-115 13,-30 30,-79 37,-109 19,-84 92,-232 158,-319 46,-61 63,-94 77,-147 10,-38 47,-130 82,-205 42,-89 67,-158 74,-200 25,-156 28,-163 97,-261 95,-134 289,-530 303,-618 6,-36 15,-89 20,-118 15,-76 159,-361 230,-455 33,-44 69,-98 81,-121 11,-22 47,-76 78,-118 57,-76 80,-134 80,-207 0,-54 28,-120 83,-195 40,-55 59,-93 72,-143 26,-101 96,-244 164,-333 58,-78 81,-136 81,-209 0,-71 29,-127 120,-232 73,-84 104,-129 157,-234 36,-71 92,-164 123,-206 43,-58 61,-93 75,-145 27,-103 96,-245 165,-336 34,-45 89,-136 122,-202 33,-67 85,-153 115,-193 42,-55 61,-92 82,-161 22,-69 42,-109 89,-173 33,-46 68,-100 77,-119 10,-19 44,-71 77,-114 36,-47 100,-160 160,-280 60,-120 124,-233 160,-280 32,-43 70,-100 83,-127 14,-27 66,-94 115,-150 81,-91 93,-110 111,-173 50,-170 99,-263 204,-381 46,-52 96,-116 111,-142 14,-27 46,-77 69,-113 43,-67 65,-117 65,-153 0,-46 42,-107 102,-149 40,-28 77,-66 109,-113 26,-38 82,-108 123,-154 71,-78 78,-90 106,-181 34,-111 41,-120 240,-325 123,-127 128,-134 203,-280 73,-143 82,-156 200,-282 119,-125 128,-138 202,-282 77,-151 77,-151 278,-359 161,-165 210,-222 241,-280 48,-88 133,-172 236,-232 95,-55 159,-115 226,-211 60,-86 85,-104 243,-184 290,-145 554,-116 650,73 11,21 48,76 83,123 138,186 170,302 120,434 -17,44 -36,103 -43,130 -7,28 -25,82 -40,120 -15,39 -33,110 -39,158 -6,50 -23,118 -40,160 -16,41 -34,110 -40,159 -6,50 -22,115 -39,156 -16,39 -35,97 -42,129 -8,35 -68,169 -152,337 -86,174 -147,311 -163,365 -14,47 -36,115 -50,150 -20,50 -28,92 -34,180 -6,93 -13,132 -38,196 -17,44 -36,103 -43,130 -6,28 -40,111 -75,185 -35,74 -73,170 -84,213 -12,43 -32,101 -44,130 -13,29 -29,77 -36,107 -7,30 -26,87 -41,125 -15,39 -33,109 -39,158 -6,50 -23,118 -40,160 -16,40 -33,108 -39,152 -12,96 -24,132 -85,252 -25,51 -57,132 -71,180 -14,49 -52,144 -84,213 -72,152 -68,141 -81,245 -6,49 -23,117 -41,162 -25,62 -33,98 -39,192 -9,134 -5,119 -81,281 -38,81 -63,149 -70,190 -23,141 -32,174 -85,282 -31,62 -67,153 -81,203 -15,49 -36,113 -48,140 -12,28 -28,75 -35,105 -7,30 -26,89 -43,130 -27,68 -31,90 -37,230 -6,140 -10,163 -38,237 -17,46 -36,121 -42,167 -6,47 -23,114 -39,153 -15,37 -34,93 -41,123 -7,30 -25,84 -40,120 -15,36 -33,90 -40,120 -7,30 -25,84 -40,120 -15,36 -33,90 -40,120 -7,30 -27,89 -43,130 -29,72 -31,83 -37,270 -6,188 -7,198 -38,275 -17,44 -36,103 -43,130 -7,28 -25,82 -40,120 -15,39 -33,110 -39,158 -6,50 -23,118 -40,160 -16,41 -34,110 -40,160 -6,50 -23,118 -40,160 -16,41 -34,110 -40,159 -6,49 -22,115 -39,155 -15,37 -34,93 -41,123 -7,30 -27,89 -44,130 -30,74 -30,77 -36,310 -6,235 -6,235 -39,320 -27,69 -34,106 -41,200 -6,91 -14,132 -39,197 -17,46 -35,121 -41,168 -6,50 -23,116 -42,162 -29,71 -32,91 -38,233 -7,142 -10,162 -40,240 -30,78 -33,98 -40,240 -7,144 -10,161 -41,240 -34,85 -34,85 -39,600 -5,515 -5,515 -40,600 -34,85 -34,85 -40,440 -6,355 -6,355 -40,440 -55,134 -55,2826 0,2960 34,85 34,85 40,400 6,315 6,315 40,400 35,85 35,85 40,560 5,475 5,475 39,560 27,70 35,105 41,200 7,92 15,132 40,200 26,69 34,107 40,201 6,94 14,130 39,192 18,46 35,113 41,164 6,50 24,119 40,160 17,41 34,110 40,158 6,48 24,121 42,168 31,81 32,84 38,317 6,235 6,235 38,313 19,47 36,111 42,164 6,50 24,119 40,160 17,42 34,110 40,160 6,49 24,119 39,158 15,38 34,95 41,125 7,30 25,84 40,120 15,36 33,90 40,120 7,30 24,79 37,109 13,30 30,81 39,115 8,34 29,97 46,141 28,73 32,94 38,235 6,136 10,163 34,222 15,37 36,100 47,140 11,40 47,129 79,198 33,69 71,164 85,213 14,48 46,129 71,180 68,134 75,160 84,288 6,92 14,130 37,190 17,41 36,99 43,129 7,30 23,78 35,105 12,28 34,91 48,142 18,62 69,178 156,350 144,288 161,335 161,438 0,113 19,161 208,541 113,227 183,380 191,417 7,32 26,90 42,129 16,40 33,106 39,153 16,133 59,229 159,362 71,94 215,379 230,455 5,29 14,82 20,118 8,54 47,140 231,510 156,315 228,471 245,532 35,123 233,517 316,628 74,100 128,209 164,333 33,115 158,363 233,463 99,132 147,239 163,368 14,107 24,129 115,230 44,48 96,117 117,154 21,37 63,99 93,138 77,101 140,240 153,337 13,94 25,119 89,184 40,41 55,66 76,131 24,70 37,92 113,177 98,113 110,136 124,247 14,110 24,130 115,232 44,48 96,117 117,154 21,37 62,99 92,137 32,43 108,180 198,360 141,281 148,294 236,393 75,85 103,126 156,231 35,70 90,163 123,207 33,43 87,133 120,200 33,66 87,156 120,200 32,43 90,139 127,212 63,124 75,142 191,265 117,124 129,140 194,269 39,75 97,172 129,215 32,43 68,97 79,119 12,23 48,77 80,120 33,44 69,98 80,120 12,23 48,77 80,120 32,44 83,126 113,184 43,84 69,120 130,180 69,70 83,90 172,266 87,171 107,202 186,292 49,55 103,127 121,161 18,33 72,106 121,162 86,98 90,105 120,203 39,127 75,199 152,306 45,61 67,104 84,160 12,41 36,115 54,164 41,117 41,325 0,408 -62,129 -235,259 -368,278 -44,6 -95,15 -114,20 -57,17 -130,11 -190,-14 z"
       id="path4"
       sodipodi:nodetypes="aaaaaaaaaaaaaaaaaaaaaaaaaaaaaaaaaaaccccccccccccccsccsccccccccccccccacccccccscscccccccccccsccsccccccccccccccccccccccccccccsccccccccccccssccccccccccccccccccccccccccccccccccccccccccscccssscccccccssscscscssscccscccccccccccccscccscccccscccccsscsssscssscscccccccsccccccccccccscscccccccccccccscccccccccccscscscccccccccccscscccccccccsccsccsccccscccccccccccscccscccccccccccscccccccssccccccccccccccccccccccccscccsccsccccccccccsccccscscccssssscccccccscscsccccccccsccscsccscscccscccscccccccssssccccscccccscccscccccccccccsccscccccccsccccccccccscccccccccccccccccc" />
  </g>
</svg>
