<?xml version="1.0" encoding="UTF-8"?>
<svg xmlns="http://www.w3.org/2000/svg" 
     viewBox="210.55 96.44 824.92 859.15"
     preserveAspectRatio="xMidYMid meet">
  <defs>
    <linearGradient id="michGrad" x1="0%" y1="0%" x2="100%" y2="100%">
      <stop offset="0%" stop-color="#7c3abf"/>
      <stop offset="100%" stop-color="#22c98a"/>
    </linearGradient>
  </defs>
  <g transform="translate(0.000000,1065.600000) scale(0.024000,-0.024000)" fill="url(#michGrad)" stroke="url(#michGrad)" stroke-width="1400">
    <path d="M19517 40160 c-71 -6 -142 -19 -210 -39 -63 -19 -144 -34 -213 -40
-122 -11 -322 -55 -424 -94 -62 -23 -166 -72 -275 -130 -27 -15 -84 -41 -125
-58 -41 -18 -118 -51 -170 -74 -52 -24 -108 -46 -125 -50 -44 -10 -200 -81
-280 -127 -126 -74 -177 -112 -294 -218 -176 -161 -325 -317 -399 -421 -58
-79 -74 -96 -108 -106 -162 -49 -340 -112 -395 -140 -37 -18 -70 -33 -75 -33
-10 0 -109 -69 -174 -120 -24 -19 -98 -87 -164 -151 -67 -64 -132 -122 -146
-129 -34 -18 -90 -62 -191 -150 -47 -41 -118 -97 -158 -125 -99 -68 -211 -165
-246 -211 -43 -59 -97 -114 -126 -129 -14 -8 -50 -17 -80 -21 -77 -9 -302 -85
-385 -130 -38 -20 -106 -62 -152 -93 -45 -31 -99 -66 -120 -78 -20 -12 -102
-89 -182 -170 -137 -140 -149 -150 -225 -182 -44 -18 -107 -39 -140 -46 -67
-14 -324 -30 -485 -30 -58 1 -204 4 -325 9 -277 10 -477 -2 -590 -38 -44 -14
-109 -30 -145 -36 -59 -10 -150 -46 -255 -102 -22 -12 -67 -35 -100 -53 -68
-35 -158 -97 -195 -135 -22 -21 -109 -102 -255 -235 -75 -69 -372 -292 -422
-318 -31 -16 -108 -32 -213 -42 -38 -4 -92 -18 -130 -35 -36 -16 -94 -37 -130
-46 -36 -8 -80 -25 -97 -36 -18 -11 -79 -28 -135 -38 -57 -10 -124 -28 -150
-39 -25 -12 -80 -30 -120 -40 -41 -10 -92 -30 -114 -44 -21 -13 -57 -28 -79
-32 -22 -4 -69 -22 -105 -41 -36 -18 -85 -43 -110 -54 -59 -27 -151 -84 -224
-140 -32 -25 -79 -60 -104 -77 -99 -70 -187 -175 -284 -337 -22 -39 -49 -99
-58 -135 -10 -36 -29 -91 -43 -121 -14 -30 -28 -77 -32 -105 -4 -27 -18 -108
-32 -179 -20 -103 -24 -146 -20 -210 3 -45 15 -117 27 -160 11 -44 20 -95 20
-115 0 -52 25 -149 43 -169 8 -9 25 -40 36 -69 33 -85 107 -227 148 -284 68
-96 192 -215 297 -287 57 -39 124 -77 150 -86 26 -9 68 -27 94 -40 26 -13 73
-29 104 -35 64 -14 88 -36 109 -99 6 -20 20 -48 29 -62 9 -14 25 -48 34 -76 9
-28 29 -71 44 -95 16 -24 48 -80 72 -124 51 -94 132 -218 170 -260 15 -16 46
-58 69 -92 24 -34 70 -84 104 -112 88 -74 144 -121 186 -159 20 -19 50 -41 66
-49 17 -9 37 -21 45 -28 28 -24 210 -114 253 -126 23 -6 60 -20 82 -30 22 -11
76 -31 120 -44 96 -29 176 -55 580 -192 171 -58 351 -118 400 -133 50 -15 120
-39 156 -53 36 -14 93 -33 127 -42 34 -8 76 -24 94 -35 18 -10 65 -25 104 -34
39 -8 93 -25 120 -39 27 -13 74 -30 104 -37 30 -7 80 -25 111 -41 31 -15 86
-35 121 -43 36 -8 81 -24 99 -35 19 -10 71 -28 115 -39 45 -11 104 -32 131
-46 28 -14 80 -32 117 -40 36 -9 84 -25 105 -36 22 -10 72 -29 112 -40 41 -11
103 -31 139 -45 36 -14 95 -34 130 -44 175 -52 543 -183 588 -210 28 -17 88
-56 132 -88 45 -32 109 -77 143 -101 34 -23 85 -58 112 -77 28 -20 66 -47 85
-60 19 -13 53 -38 75 -55 22 -17 60 -45 85 -61 58 -38 108 -73 141 -98 14 -11
99 -56 188 -101 104 -52 181 -84 218 -91 136 -24 362 -84 413 -109 111 -56
184 -80 318 -104 219 -41 305 -48 452 -41 135 7 135 7 195 -25 33 -18 120 -52
193 -76 73 -24 150 -53 171 -64 56 -28 88 -71 102 -137 6 -32 22 -74 34 -93
12 -19 34 -60 48 -90 15 -30 47 -82 72 -115 25 -33 63 -85 85 -116 22 -32 88
-101 147 -156 114 -104 149 -131 222 -175 75 -44 304 -158 319 -158 49 0 160
-97 147 -129 -4 -9 -18 -45 -31 -80 -14 -35 -33 -80 -44 -100 -19 -35 -38 -98
-106 -339 -18 -67 -40 -135 -49 -151 -49 -96 -81 -339 -64 -491 17 -155 47
-289 82 -368 19 -42 38 -88 42 -102 4 -14 16 -41 26 -60 10 -19 27 -55 37 -80
11 -25 37 -70 58 -100 43 -60 180 -200 230 -234 38 -26 80 -75 93 -108 5 -14
13 -59 17 -99 3 -41 17 -99 29 -129 13 -30 27 -77 33 -105 14 -67 107 -246
195 -377 40 -58 90 -136 112 -173 36 -60 77 -116 170 -235 37 -47 167 -160
249 -217 33 -23 86 -54 116 -69 30 -15 71 -38 90 -50 19 -12 61 -29 93 -37 31
-9 74 -25 94 -37 20 -11 80 -30 134 -41 54 -11 119 -28 144 -39 75 -32 167
-42 315 -35 95 5 151 13 190 27 30 11 89 28 130 39 41 11 91 30 110 44 19 13
53 31 75 40 97 40 235 145 362 276 86 89 134 151 167 218 14 27 30 52 36 56 5
3 18 35 29 70 11 35 28 79 37 96 9 18 25 56 35 86 12 37 41 80 91 138 40 46
109 134 153 196 44 61 101 136 126 165 60 70 171 235 203 304 28 59 100 176
127 207 9 10 25 34 34 53 10 19 64 87 120 150 56 63 118 143 138 178 20 34 62
118 92 185 31 67 71 154 90 192 55 111 105 238 131 332 13 47 31 94 40 104 17
19 76 35 170 44 77 8 100 -3 210 -99 103 -90 174 -146 186 -146 5 0 33 -15 62
-34 29 -18 63 -37 77 -41 13 -4 49 -20 79 -35 30 -15 96 -38 145 -51 50 -12
110 -31 134 -41 28 -12 93 -23 180 -30 104 -9 164 -9 258 1 68 6 142 19 165
27 24 8 79 24 123 34 85 20 261 97 290 127 10 10 37 29 61 43 49 29 157 117
229 186 106 103 207 271 298 494 24 60 63 97 120 115 77 24 237 104 275 137
18 15 37 28 43 28 6 0 52 31 102 69 128 97 256 232 345 367 46 70 85 110 112
117 11 3 57 -8 102 -24 46 -16 123 -36 172 -45 96 -16 140 -34 150 -59 13 -35
5 -131 -20 -238 -24 -102 -26 -125 -21 -252 4 -100 14 -178 35 -276 17 -74 43
-167 60 -205 16 -38 35 -86 41 -106 7 -20 20 -47 30 -60 10 -13 32 -46 49 -74
40 -68 179 -240 229 -284 43 -37 101 -82 171 -130 23 -17 42 -36 42 -44 0 -25
-42 -66 -108 -106 -37 -22 -82 -42 -100 -46 -36 -7 -98 13 -252 81 -95 43 -95
43 -322 60 -195 15 -251 16 -390 6 -90 -7 -195 -19 -234 -27 -120 -24 -292
-91 -384 -149 -142 -90 -378 -318 -431 -417 -63 -117 -121 -245 -145 -325 -27
-89 -72 -178 -154 -303 -111 -170 -148 -238 -160 -290 -7 -30 -27 -93 -45
-140 -24 -61 -36 -117 -45 -198 -7 -65 -10 -144 -6 -185 4 -40 11 -123 16
-185 8 -87 17 -131 39 -187 17 -41 35 -93 41 -117 6 -24 23 -60 37 -80 14 -21
28 -57 30 -81 5 -40 2 -48 -33 -86 -20 -23 -50 -49 -64 -56 -48 -25 -245 -228
-298 -306 -66 -99 -157 -295 -188 -406 -57 -207 -57 -209 -58 -428 -1 -220 11
-321 55 -464 10 -35 19 -85 19 -111 0 -29 -12 -81 -30 -130 -40 -108 -76 -255
-89 -360 -6 -46 -11 -132 -11 -191 0 -58 -5 -121 -11 -140 -7 -19 -27 -55 -45
-80 -19 -26 -34 -51 -34 -56 0 -5 -16 -32 -35 -59 -19 -27 -40 -65 -46 -84 -6
-19 -24 -55 -39 -80 -16 -25 -35 -71 -44 -103 -8 -33 -26 -75 -39 -96 -13 -20
-27 -47 -31 -61 -4 -14 -27 -66 -51 -115 -41 -85 -51 -96 -152 -184 -121 -105
-241 -233 -280 -301 -15 -25 -32 -52 -39 -60 -27 -32 -121 -228 -133 -275 -7
-27 -23 -78 -36 -111 -32 -79 -48 -256 -40 -424 8 -169 22 -259 50 -327 13
-32 26 -76 30 -98 4 -22 18 -60 31 -85 13 -25 34 -74 48 -110 14 -36 36 -92
50 -125 39 -93 52 -253 31 -361 -3 -11 -38 -67 -80 -124 -41 -56 -75 -108 -75
-114 0 -6 -14 -31 -30 -56 -17 -25 -39 -69 -50 -98 -11 -28 -31 -69 -45 -90
-14 -21 -30 -66 -36 -101 -6 -34 -22 -78 -37 -99 -17 -26 -31 -69 -44 -142
-10 -58 -28 -142 -38 -186 -12 -49 -20 -117 -20 -168 0 -80 34 -352 65 -513 8
-39 23 -89 34 -111 11 -22 29 -80 40 -129 11 -48 31 -108 44 -133 14 -25 31
-65 37 -90 6 -25 23 -65 38 -90 47 -80 101 -200 118 -258 9 -31 23 -70 32 -87
8 -16 27 -77 42 -135 143 -552 183 -679 287 -915 50 -113 223 -465 243 -495
10 -14 25 -50 33 -80 9 -30 27 -71 40 -90 27 -39 42 -84 51 -146 3 -22 15 -61
25 -85 11 -24 32 -97 46 -162 15 -65 36 -139 47 -165 17 -38 22 -79 29 -227
11 -228 25 -372 49 -507 10 -58 25 -191 31 -295 10 -150 10 -216 0 -323 -7
-74 -21 -173 -31 -220 -25 -112 -37 -186 -50 -295 -6 -49 -22 -128 -35 -175
-13 -47 -31 -144 -40 -217 -8 -72 -26 -164 -39 -205 -13 -40 -27 -102 -31
-138 -10 -94 -33 -196 -51 -231 -8 -17 -24 -75 -34 -129 -10 -54 -28 -116 -39
-138 -11 -21 -29 -76 -41 -121 -11 -45 -35 -112 -52 -149 -127 -276 -137 -292
-257 -440 -42 -52 -93 -115 -114 -140 -20 -26 -51 -69 -67 -97 -17 -27 -51
-77 -75 -110 -25 -33 -61 -82 -80 -110 -40 -57 -98 -134 -169 -226 -27 -35
-73 -104 -102 -154 -29 -49 -62 -106 -74 -125 -42 -65 -107 -228 -206 -513
-18 -53 -42 -110 -52 -125 -10 -15 -36 -53 -57 -85 -47 -71 -163 -182 -281
-267 -133 -96 -157 -116 -278 -230 -198 -186 -218 -214 -317 -425 -75 -162
-118 -392 -105 -575 8 -128 48 -304 84 -376 16 -33 35 -75 42 -94 24 -64 84
-154 159 -240 139 -158 245 -252 312 -275 22 -8 55 -27 72 -41 17 -14 42 -30
56 -36 14 -5 47 -22 72 -39 33 -21 75 -35 155 -49 60 -12 143 -28 184 -36 51
-10 186 -18 425 -24 193 -5 454 -16 580 -24 155 -11 364 -15 640 -15 247 1
440 -3 485 -9 178 -26 660 -32 2968 -37 2014 -4 2418 -7 2445 -19 18 -7 70
-46 117 -85 135 -113 271 -200 378 -242 157 -61 162 -62 607 -66 533 -6 1667
13 1900 32 99 8 250 15 335 15 85 0 227 4 315 10 88 5 286 14 440 20 413 16
749 37 1160 71 66 5 206 14 310 19 105 6 227 15 273 20 46 6 181 15 300 20
545 23 713 41 867 90 33 11 85 25 115 31 98 21 226 94 345 198 71 62 203 209
224 251 11 19 35 59 55 89 20 29 36 58 36 65 0 6 11 27 24 46 27 40 87 202
112 304 14 54 29 84 78 148 74 97 136 192 176 273 42 83 104 159 205 249 48
42 137 133 200 202 101 112 121 141 193 277 45 84 93 179 107 212 39 90 82
177 122 242 52 86 123 258 140 338 8 38 23 98 33 132 21 69 44 290 35 333 -3
15 -1 48 6 74 10 39 20 54 63 85 28 21 79 52 113 71 65 34 203 140 287 219 67
64 141 159 216 276 35 55 73 116 86 135 20 31 72 143 133 283 16 39 28 51 63
67 24 10 93 25 153 34 72 10 136 25 185 46 41 17 100 40 130 52 93 35 289 165
352 232 171 183 323 368 410 501 15 22 62 110 106 196 85 168 102 223 167 535
22 108 44 182 63 221 36 70 97 280 112 378 14 101 12 226 -6 425 -17 173 -17
176 5 253 11 43 32 94 45 115 13 20 26 48 31 62 4 14 22 57 41 97 27 58 36 95
48 195 8 68 22 150 30 183 20 74 20 126 1 218 -8 40 -21 115 -29 169 -9 53
-27 131 -40 175 -14 43 -32 110 -40 149 -8 40 -23 89 -34 111 -11 21 -32 78
-45 125 -29 98 -87 249 -124 323 -38 73 -72 169 -88 244 -8 36 -25 98 -39 138
-13 40 -31 116 -40 170 -20 129 -44 435 -55 712 -8 191 -15 251 -47 415 -20
108 -46 213 -60 241 -12 28 -30 99 -40 159 -9 60 -24 128 -34 150 -9 23 -25
79 -34 126 -10 47 -32 114 -49 150 -32 65 -32 65 -29 360 4 360 -8 558 -42
667 -31 102 -33 113 -46 221 -6 51 -23 134 -39 185 -16 51 -34 115 -41 142 -6
28 -22 68 -34 90 -13 22 -31 65 -41 95 -18 56 -74 158 -120 220 -59 79 -108
168 -136 244 -17 45 -43 117 -58 161 -29 83 -108 243 -164 331 -41 65 -201
247 -264 300 -26 23 -66 52 -88 66 -22 14 -46 33 -54 42 -23 28 -140 107 -217
147 -41 21 -105 58 -142 83 -37 25 -126 74 -197 109 -171 84 -262 134 -293
157 -14 11 -47 27 -75 35 -27 8 -64 23 -82 34 -53 31 -95 41 -249 56 -114 12
-174 13 -264 5 -65 -5 -150 -15 -190 -21 -41 -6 -84 -8 -97 -5 -28 7 -50 56
-39 88 4 13 8 165 9 338 1 182 6 349 13 395 32 217 44 334 57 543 12 208 16
234 44 312 20 57 33 120 40 190 22 224 23 333 5 540 -9 113 -18 277 -19 365
-2 119 -7 171 -19 204 -9 25 -25 96 -37 159 -11 63 -33 146 -49 185 -39 90
-40 155 -4 223 15 27 35 74 46 104 10 30 29 71 42 90 30 43 32 52 50 175 9 55
23 125 32 155 22 74 22 265 0 340 -9 30 -26 97 -37 149 -11 51 -33 119 -48
150 -16 31 -36 81 -46 111 -10 30 -26 69 -37 87 -10 17 -26 69 -35 115 -8 46
-23 99 -33 118 -9 19 -25 59 -35 89 -17 52 -39 93 -116 216 -62 98 -87 167
-109 297 -33 199 -65 288 -164 453 -84 141 -151 221 -285 339 -36 32 -106 104
-155 161 -50 57 -129 137 -176 177 -157 137 -290 211 -508 284 -113 38 -155
47 -277 59 -136 13 -148 16 -212 51 -37 21 -86 50 -108 65 -22 15 -56 34 -75
42 -19 8 -48 26 -64 40 -16 14 -50 31 -75 37 -25 6 -68 24 -96 40 -27 15 -68
33 -90 40 -22 7 -56 27 -76 44 -54 47 -340 229 -446 283 -29 15 -53 33 -53 39
0 24 73 39 185 38 97 -1 123 -5 220 -37 61 -19 146 -42 190 -50 113 -22 285
-29 385 -17 281 35 502 111 695 239 94 62 238 178 302 243 58 60 270 339 323
425 19 32 42 73 50 93 8 19 27 55 42 80 15 25 34 77 43 115 9 39 24 95 34 125
25 74 44 257 36 350 -8 98 -31 234 -43 257 -5 10 -17 54 -26 97 -16 80 -79
221 -136 306 -16 25 -30 50 -30 56 0 28 -114 176 -193 253 -89 86 -126 135
-191 251 -42 74 -124 182 -194 253 -64 66 -174 149 -307 232 -17 11 -48 32
-68 47 -19 16 -59 33 -89 39 -29 6 -74 22 -100 35 -51 26 -65 29 -273 75 -131
29 -159 31 -445 39 -168 5 -320 14 -339 19 -52 16 -78 37 -89 73 -20 63 -35
265 -29 379 3 63 13 192 21 287 18 190 13 290 -24 508 -20 116 -84 306 -119
354 -10 14 -26 41 -36 60 -46 90 -118 184 -219 285 -61 61 -138 129 -171 152
-82 57 -220 127 -279 142 -27 6 -71 23 -99 37 -27 14 -101 46 -163 70 -98 38
-129 46 -241 56 -160 15 -167 15 -343 -1 -116 -10 -159 -18 -216 -41 -112 -44
-273 -90 -320 -90 -73 0 -268 -38 -353 -69 -44 -16 -107 -35 -138 -41 -32 -7
-94 -27 -138 -45 -44 -18 -99 -35 -122 -39 -55 -8 -179 10 -222 33 -19 9 -44
29 -55 44 -19 25 -19 31 -6 124 18 129 15 212 -9 320 -11 48 -22 108 -26 133
-13 96 -119 320 -219 459 -46 65 -193 216 -256 264 -30 22 -80 60 -111 83 -31
24 -69 49 -85 56 -16 7 -50 27 -76 44 -77 52 -201 94 -333 114 -66 10 -140 23
-165 29 -73 17 -206 13 -365 -13 -204 -33 -219 -34 -390 -46 -82 -5 -188 -16
-235 -24 -47 -8 -134 -20 -195 -26 -60 -6 -141 -22 -180 -35 -38 -13 -105 -33
-149 -45 -43 -11 -97 -31 -120 -44 -22 -13 -63 -29 -90 -35 -27 -7 -69 -22
-95 -35 -25 -13 -71 -31 -101 -41 -30 -10 -61 -22 -68 -28 -17 -13 -140 -79
-222 -119 -38 -18 -87 -33 -119 -36 -30 -3 -106 1 -167 8 -98 11 -133 11 -262
-3 -82 -10 -164 -14 -183 -11 -54 10 -209 53 -267 75 -35 12 -105 23 -202 31
-183 14 -385 1 -470 -31 -31 -11 -103 -29 -161 -40 -58 -10 -120 -26 -138 -35
-17 -9 -54 -21 -82 -26 -41 -8 -71 -6 -147 10 -52 11 -123 20 -156 20 -34 0
-138 -13 -231 -29 -194 -32 -383 -91 -485 -150 -36 -21 -101 -59 -145 -84
-134 -77 -247 -154 -305 -208 -30 -28 -80 -64 -110 -81 -30 -16 -89 -49 -130
-73 -41 -25 -86 -50 -100 -56 -35 -15 -107 -5 -140 20 -16 11 -48 25 -72 30
-75 17 -296 23 -475 13 -160 -9 -177 -12 -235 -39 -35 -17 -88 -36 -118 -43
-30 -7 -86 -29 -124 -49 -63 -33 -75 -36 -150 -35 -65 1 -102 8 -191 38 -93
32 -132 39 -250 48 -173 13 -203 13 -335 0 -74 -7 -125 -18 -173 -38 -67 -28
-67 -28 -112 -6 -25 12 -57 39 -72 59 -24 34 -58 66 -176 165 -41 33 -99 115
-148 208 -17 30 -52 89 -79 130 -26 41 -59 102 -71 134 -27 70 -104 224 -123
246 -8 8 -26 38 -40 65 -38 71 -114 165 -246 305 -95 100 -139 138 -255 215
-77 52 -185 128 -240 169 -55 41 -135 96 -178 123 -43 26 -100 63 -125 80 -26
18 -65 42 -87 54 -22 12 -56 33 -75 48 -49 36 -170 89 -266 116 -45 13 -90 28
-102 34 -28 15 -62 60 -62 83 0 11 13 26 31 36 17 9 50 31 72 47 41 30 140 91
184 114 11 6 65 18 120 26 167 27 347 81 453 138 102 54 170 97 210 134 14 12
52 46 85 74 33 29 64 60 69 68 5 9 27 37 50 62 93 105 167 227 197 326 12 37
30 86 41 107 26 52 67 289 68 392 0 45 -9 150 -20 232 -17 124 -28 173 -65
269 -45 120 -100 234 -141 288 -12 17 -33 53 -47 80 -14 28 -51 77 -83 110
-33 33 -95 100 -139 148 -76 84 -105 110 -289 256 -137 109 -397 226 -576 260
-143 27 -366 45 -473 38 -77 -5 -98 -2 -170 20 -78 25 -94 27 -322 29 -132 1
-289 -2 -348 -6z m528 -1205 c85 -21 129 -27 195 -25 236 7 299 1 397 -41 103
-44 293 -219 328 -303 8 -19 17 -58 20 -88 7 -69 -19 -147 -57 -167 -22 -13
-39 -13 -110 -3 -101 14 -149 5 -192 -37 -54 -53 -131 -74 -189 -52 -13 5 -51
33 -83 61 -59 52 -59 52 -174 45 -63 -4 -125 -11 -137 -16 -12 -4 -24 -17 -28
-29 -5 -16 3 -32 34 -65 41 -44 46 -62 42 -135 -1 -14 -9 -42 -18 -62 -21 -49
-78 -83 -172 -102 -81 -17 -241 -84 -310 -130 -25 -17 -60 -53 -78 -81 -52
-80 -140 -172 -201 -212 -31 -20 -114 -65 -184 -100 -98 -49 -135 -73 -168
-110 -23 -27 -46 -58 -51 -71 -5 -12 -12 -59 -15 -103 -6 -65 -12 -87 -31
-109 -13 -16 -45 -36 -72 -45 -26 -8 -57 -26 -69 -38 -11 -12 -25 -40 -31 -62
-14 -55 -73 -109 -149 -139 -82 -32 -116 -58 -138 -103 -14 -30 -17 -59 -16
-138 1 -55 -3 -124 -9 -154 -9 -44 -21 -65 -61 -107 -28 -30 -71 -64 -97 -77
-112 -56 -188 -107 -200 -134 -7 -15 -16 -62 -21 -103 -8 -82 -25 -130 -103
-295 -52 -110 -52 -110 -52 -215 0 -84 4 -111 18 -133 38 -58 103 -23 175 94
28 46 57 93 65 104 8 11 60 52 116 90 55 39 122 85 148 103 27 19 85 66 129
105 210 185 329 284 372 309 49 28 167 58 228 58 19 0 47 -6 62 -14 55 -29
102 -96 102 -146 0 -11 -13 -34 -29 -52 -15 -18 -31 -43 -35 -55 -4 -14 -18
-25 -34 -29 -62 -14 -77 -21 -77 -40 0 -15 8 -20 42 -22 39 -3 44 0 55 25 15
34 26 43 54 43 12 0 33 9 47 20 14 11 45 23 69 26 35 5 61 -2 148 -36 58 -24
112 -48 120 -56 9 -7 36 -22 60 -33 52 -24 125 -27 246 -10 112 16 191 2 262
-48 47 -32 63 -37 135 -43 45 -4 96 -14 112 -23 17 -8 61 -40 98 -70 41 -33
85 -59 111 -66 23 -6 49 -18 58 -28 20 -24 38 -78 38 -117 0 -51 11 -76 35
-82 12 -3 48 4 80 15 33 12 60 21 62 21 1 0 25 -20 53 -45 28 -25 71 -55 96
-66 64 -31 205 -187 245 -274 29 -60 32 -77 30 -144 -2 -42 -3 -88 -3 -103 -1
-39 45 -94 102 -123 26 -13 57 -36 68 -50 28 -35 45 -90 39 -122 -3 -15 1 -48
9 -74 9 -31 27 -58 52 -80 53 -47 129 -145 151 -195 21 -47 27 -50 131 -58 63
-4 66 -6 117 -59 53 -55 53 -55 54 -129 0 -40 4 -132 8 -203 5 -112 9 -134 28
-161 32 -45 163 -110 238 -119 33 -3 117 -1 185 6 69 7 208 12 310 13 201 1
212 4 282 65 18 15 75 50 127 77 94 49 94 49 190 48 53 0 109 -6 124 -12 43
-18 104 -71 116 -101 5 -14 13 -55 17 -91 3 -36 12 -76 19 -90 23 -43 88 -98
134 -111 34 -10 52 -24 82 -66 22 -29 52 -61 66 -70 34 -23 112 -22 146 0 13
9 28 28 32 44 19 79 95 143 191 163 40 9 63 9 89 0 38 -13 84 -60 104 -108 17
-41 57 -54 78 -26 11 14 14 39 11 95 -4 63 -10 85 -39 135 -31 54 -34 66 -34
139 0 51 6 91 15 110 22 44 90 77 170 83 57 4 76 1 114 -18 26 -12 53 -34 60
-49 8 -14 24 -60 36 -101 17 -57 20 -86 15 -125 -4 -27 -8 -72 -9 -98 -1 -42
3 -52 27 -73 35 -30 89 -32 136 -3 46 28 230 217 311 318 44 56 121 92 257
119 56 12 117 27 135 35 18 8 57 34 86 58 98 81 167 129 227 158 33 16 83 47
111 68 130 96 152 114 157 127 8 19 161 120 239 156 45 21 88 33 136 37 67 5
73 4 135 -31 36 -20 79 -36 96 -36 17 0 54 9 83 20 29 10 125 35 213 55 88 19
212 49 275 66 76 20 151 32 220 36 96 5 115 3 200 -22 52 -15 133 -40 180 -55
47 -15 121 -31 165 -34 44 -4 134 -1 200 5 257 24 247 24 479 -17 43 -8 102
-14 132 -14 30 0 99 13 156 30 98 28 210 81 570 269 65 33 124 61 132 61 8 0
44 16 80 35 42 22 97 40 153 51 49 9 125 25 171 35 46 11 105 19 130 19 52 0
196 -23 257 -41 23 -6 75 -9 125 -7 72 4 97 11 165 43 44 21 91 47 104 57 13
10 35 18 48 18 13 0 57 -15 98 -34 55 -26 81 -44 104 -76 23 -32 31 -54 31
-85 0 -56 -27 -95 -119 -169 -87 -70 -110 -113 -111 -201 0 -71 -15 -128 -64
-247 -20 -48 -36 -103 -36 -123 0 -42 38 -178 74 -263 14 -34 26 -71 26 -83 0
-12 -26 -63 -59 -113 -32 -50 -61 -104 -65 -119 -12 -49 10 -101 64 -151 42
-39 55 -46 90 -46 31 0 51 8 80 31 26 21 54 33 85 37 44 4 49 2 88 -36 23 -22
55 -46 70 -51 16 -6 65 -11 110 -11 83 0 83 0 152 -70 66 -66 72 -69 117 -70
35 0 54 6 76 25 16 13 50 34 76 45 26 11 61 30 79 43 18 13 67 43 110 67 79
42 79 42 205 38 124 -4 128 -5 192 -40 36 -21 80 -52 98 -71 18 -18 41 -55 51
-81 25 -67 96 -156 124 -156 21 0 64 25 157 90 67 47 83 65 112 130 54 119
150 192 278 210 41 6 85 17 99 24 15 7 40 21 56 30 35 19 98 21 146 4 19 -6
62 -31 97 -56 37 -26 74 -44 90 -44 20 0 38 13 71 53 85 102 144 153 196 172
75 26 115 22 166 -15 35 -25 57 -32 114 -38 78 -8 109 -20 125 -51 6 -11 20
-56 32 -101 20 -80 20 -84 3 -241 -9 -87 -23 -177 -31 -199 -8 -22 -27 -55
-43 -73 -17 -19 -32 -51 -36 -74 -10 -58 11 -136 47 -177 16 -19 36 -57 43
-86 8 -29 16 -103 19 -164 3 -61 13 -144 21 -185 20 -90 30 -227 21 -264 -11
-44 -90 -120 -159 -151 -54 -25 -76 -29 -174 -32 -112 -4 -112 -4 -143 -38
-38 -44 -44 -97 -12 -121 30 -24 69 -15 117 27 25 22 57 43 71 46 33 8 76 1
147 -26 50 -19 63 -30 92 -74 36 -56 92 -111 122 -119 10 -3 38 -8 63 -12 25
-3 59 -14 76 -23 43 -23 101 -95 115 -143 10 -33 9 -45 -6 -78 -9 -21 -35 -56
-56 -77 -21 -21 -39 -42 -39 -47 0 -14 103 -180 134 -215 34 -39 88 -65 185
-89 90 -22 155 -56 188 -99 30 -38 89 -74 123 -74 13 0 27 12 38 31 31 57 63
88 102 100 31 9 46 9 70 -1 17 -7 45 -28 63 -46 38 -41 73 -44 89 -9 16 36 -7
81 -62 121 -30 22 -67 64 -101 116 -45 70 -54 91 -57 139 -3 46 0 65 17 92 30
49 62 67 120 67 40 0 59 -7 102 -36 33 -23 70 -39 97 -42 34 -4 50 0 80 21 22
14 56 30 78 36 49 14 224 14 293 1 80 -15 239 -88 262 -121 10 -15 32 -60 48
-99 17 -40 39 -82 49 -94 11 -11 38 -61 61 -109 44 -93 70 -117 142 -137 19
-5 45 -20 56 -32 11 -13 37 -54 57 -92 67 -128 46 -198 -111 -372 -82 -91
-105 -110 -176 -145 -77 -39 -85 -41 -152 -37 -48 3 -90 14 -133 33 -50 22
-72 40 -105 84 -24 31 -54 62 -67 69 -15 8 -47 11 -80 9 -39 -2 -66 -11 -93
-30 -45 -31 -102 -42 -212 -42 -70 0 -89 4 -153 34 -73 34 -73 34 -126 18 -29
-9 -65 -17 -80 -17 -37 0 -124 57 -142 92 -8 15 -24 30 -37 32 -12 3 -62 7
-112 9 -64 3 -103 10 -135 25 -61 29 -151 29 -215 1 -39 -17 -62 -20 -134 -17
-69 3 -98 9 -146 32 -44 21 -80 30 -138 34 -75 4 -81 3 -147 -32 -38 -20 -81
-36 -95 -36 -14 0 -54 7 -89 16 -60 15 -65 15 -127 -7 -51 -18 -89 -22 -189
-24 -69 -1 -135 -3 -147 -3 -13 -1 -51 -31 -90 -71 -45 -46 -85 -77 -120 -91
-50 -21 -53 -21 -102 -5 -84 27 -114 54 -133 115 -10 30 -20 67 -23 82 -3 17
-16 33 -33 41 -67 34 -160 27 -257 -18 -46 -22 -58 -24 -77 -14 -37 20 -72 49
-85 72 -20 36 -15 103 12 157 14 27 25 66 25 87 0 72 -69 106 -128 64 -47 -32
-113 -62 -141 -63 -51 -2 -68 11 -95 72 -28 62 -56 90 -92 90 -11 0 -29 -9
-40 -21 -21 -23 -23 -61 -10 -199 6 -57 5 -99 -3 -127 -6 -23 -32 -66 -56 -94
-51 -60 -55 -86 -30 -174 15 -50 15 -56 -5 -113 -21 -60 -21 -60 5 -163 22
-86 25 -110 16 -139 -6 -19 -24 -51 -41 -72 -32 -39 -120 -88 -157 -88 -31 0
-133 52 -158 80 -11 13 -40 31 -65 42 -57 24 -135 99 -166 160 -26 51 -114
126 -186 157 -65 29 -122 83 -174 169 -77 128 -263 325 -371 395 -71 45 -125
67 -173 67 -14 0 -52 12 -85 27 -33 14 -103 41 -155 59 -79 28 -109 34 -180
34 -61 0 -103 6 -145 21 -50 18 -73 20 -137 15 -102 -8 -141 8 -216 89 -89 97
-130 111 -244 79 -57 -16 -57 -16 -105 14 -73 46 -100 48 -153 12 -25 -17 -58
-30 -75 -30 -16 0 -55 7 -85 15 -43 11 -69 12 -119 4 -35 -5 -76 -16 -91 -24
-15 -8 -56 -42 -92 -77 -42 -40 -77 -86 -98 -128 -44 -87 -168 -277 -216 -330
-22 -24 -78 -69 -126 -100 -99 -65 -148 -77 -240 -60 -76 14 -193 70 -254 120
-55 45 -96 52 -135 21 -44 -33 -72 -44 -141 -51 -92 -10 -108 -25 -108 -102 0
-98 -56 -178 -124 -178 -38 0 -108 31 -149 66 -17 14 -41 30 -54 35 -13 5 -41
22 -61 38 -21 17 -65 36 -102 45 -35 9 -72 23 -81 32 -17 15 -161 79 -217 95
-29 9 -42 5 -112 -30 -88 -46 -125 -50 -211 -25 -80 24 -185 14 -263 -25 -34
-17 -83 -38 -110 -48 -35 -13 -62 -34 -99 -75 -46 -53 -50 -62 -60 -135 -12
-93 -34 -196 -76 -357 -17 -65 -31 -131 -31 -148 0 -40 -22 -78 -69 -121 -45
-41 -89 -52 -161 -43 -53 7 -93 -6 -121 -40 -8 -9 -34 -27 -59 -38 -25 -12
-58 -30 -74 -41 -16 -10 -58 -22 -95 -27 -37 -4 -77 -16 -91 -26 -15 -11 -32
-41 -43 -75 -18 -57 -31 -71 -156 -175 -28 -24 -61 -60 -73 -80 -12 -20 -40
-51 -62 -67 -31 -24 -42 -38 -44 -64 -2 -18 6 -55 17 -82 12 -26 21 -67 21
-91 0 -33 -7 -54 -30 -85 -42 -57 -97 -77 -194 -71 -66 4 -79 9 -111 36 -20
18 -39 32 -43 32 -4 0 -45 36 -90 80 -102 98 -123 141 -129 260 -4 78 -3 89
24 140 25 49 34 57 83 75 45 17 59 28 78 63 13 23 46 66 73 96 37 41 49 62 49
85 0 18 7 64 16 103 10 45 25 80 43 99 22 25 38 32 101 41 41 6 81 15 88 21
19 15 75 103 109 172 17 33 42 83 57 111 15 29 30 76 33 106 5 48 3 58 -16 77
-14 14 -34 21 -61 21 -67 0 -92 -21 -146 -116 -27 -48 -72 -113 -101 -143 -52
-56 -52 -56 -150 -56 -93 0 -101 2 -161 34 -36 19 -75 51 -90 70 -14 20 -33
42 -41 49 -35 29 -91 0 -91 -47 0 -14 7 -44 15 -66 25 -71 19 -111 -26 -184
-23 -36 -59 -85 -80 -108 -45 -49 -83 -122 -93 -178 -4 -21 -15 -53 -23 -70
-25 -48 -92 -129 -120 -143 -34 -19 -128 -51 -183 -63 -25 -5 -69 -26 -99 -45
-95 -63 -201 -89 -266 -64 -15 6 -33 25 -43 47 -13 31 -17 74 -18 228 0 115
-5 204 -12 225 -17 51 -15 81 13 164 27 79 26 115 -4 155 -14 18 -27 23 -60
23 -24 -1 -53 -7 -65 -16 -13 -8 -31 -31 -40 -50 -15 -32 -16 -47 -5 -139 6
-56 9 -143 6 -194 -5 -84 -9 -99 -52 -182 -27 -53 -67 -110 -96 -141 -28 -28
-108 -88 -177 -134 -70 -46 -147 -106 -172 -133 -61 -67 -120 -144 -120 -155
0 -5 -13 -29 -30 -52 -16 -24 -37 -63 -46 -87 -10 -24 -25 -55 -34 -69 -31
-46 -111 -214 -141 -295 -17 -44 -44 -123 -60 -175 -17 -52 -40 -111 -52 -130
-12 -19 -43 -59 -70 -87 -50 -53 -50 -53 -56 -141 -7 -99 0 -87 -142 -243 -42
-46 -84 -100 -94 -119 -10 -19 -29 -48 -42 -65 -13 -16 -35 -46 -48 -65 -13
-19 -49 -71 -79 -115 -30 -44 -62 -100 -71 -124 -17 -49 -81 -146 -155 -236
-27 -33 -62 -80 -77 -105 -60 -99 -143 -201 -259 -321 -68 -69 -128 -138 -133
-152 -6 -15 -22 -74 -36 -133 -14 -58 -34 -123 -45 -144 -34 -66 -92 -64 -233
8 -73 38 -95 54 -127 99 -21 29 -41 69 -44 87 -4 23 -30 61 -76 113 -39 43
-80 98 -93 123 -19 39 -22 60 -21 155 1 115 7 142 78 315 15 36 43 108 64 160
20 52 47 108 59 125 77 106 123 180 131 208 13 46 4 92 -24 122 -17 19 -33 25
-63 25 -37 0 -43 -4 -82 -56 -27 -37 -55 -62 -83 -74 -47 -22 -121 -27 -221
-15 -55 6 -84 4 -132 -10 -75 -21 -152 -17 -208 11 -28 13 -47 32 -62 64 -13
24 -23 62 -23 85 1 55 34 124 78 161 37 32 37 32 37 145 1 127 10 156 67 204
17 15 56 38 85 51 74 32 87 65 80 194 -3 52 -15 131 -26 175 -18 66 -20 88
-11 134 16 90 38 123 100 153 30 14 62 36 72 48 12 15 18 39 18 71 0 46 -4 52
-70 126 -52 58 -74 91 -86 131 -14 48 -14 57 1 101 8 26 29 61 45 76 22 21 30
38 30 63 0 65 -23 84 -125 103 -40 8 -60 19 -102 61 -32 31 -60 72 -73 104
-26 62 -53 77 -132 73 -148 -7 -186 -4 -215 17 -15 11 -43 43 -60 70 -22 32
-46 55 -72 67 -39 17 -42 17 -124 -7 -81 -24 -88 -24 -146 -10 -34 8 -74 20
-89 28 -15 8 -49 37 -74 64 -38 40 -52 66 -74 137 -24 77 -26 91 -15 128 20
67 56 120 96 141 20 11 43 32 51 47 17 33 18 69 3 141 -6 29 -13 63 -15 76 -6
32 -80 110 -127 134 -24 12 -73 23 -125 28 -55 5 -120 20 -176 40 -94 34 -103
34 -216 9 -88 -19 -119 -8 -215 77 -46 41 -99 81 -118 89 -25 10 -58 12 -124
8 -90 -6 -90 -6 -129 29 -86 76 -122 97 -188 114 -37 9 -81 27 -99 40 -61 46
-97 57 -167 52 -53 -4 -81 -13 -150 -51 -93 -50 -173 -72 -225 -63 -21 4 -55
26 -87 55 -31 28 -91 66 -143 91 -82 38 -98 43 -180 45 -185 7 -290 19 -316
38 -13 9 -46 33 -74 52 -27 19 -75 53 -105 75 -165 121 -263 192 -310 224 -19
14 -89 63 -155 111 -299 214 -320 225 -540 290 -44 13 -93 29 -110 36 -85 33
-320 113 -390 133 -44 13 -98 33 -120 44 -22 11 -67 26 -100 32 -33 7 -85 25
-115 41 -30 15 -84 35 -120 44 -36 9 -79 25 -96 36 -17 10 -65 27 -105 37 -41
11 -93 28 -115 40 -23 12 -77 31 -119 42 -42 11 -94 29 -115 40 -21 11 -73 29
-115 40 -43 11 -90 27 -104 35 -15 7 -61 23 -102 34 -41 11 -146 45 -234 76
-88 31 -203 69 -255 85 -52 16 -174 57 -270 90 -96 34 -222 76 -280 94 -58 18
-115 38 -127 45 -12 6 -52 18 -88 26 -37 9 -88 27 -114 40 -25 13 -77 32 -116
40 -38 9 -83 25 -100 35 -16 10 -64 28 -105 40 -75 22 -83 28 -166 121 -39 42
-86 117 -148 231 -44 81 -48 94 -62 213 -14 121 -17 132 -65 220 -27 51 -56
98 -64 105 -8 6 -24 32 -36 56 -26 54 -103 114 -175 137 -100 32 -141 55 -176
99 -20 23 -43 57 -52 75 -18 36 -43 47 -77 34 -76 -28 -202 -19 -243 17 -30
27 -56 93 -56 145 0 70 28 115 107 173 77 57 163 111 202 126 14 6 82 12 151
13 125 3 125 3 220 52 52 27 111 59 130 71 19 12 59 27 90 33 30 6 82 21 115
34 42 15 94 24 177 29 130 8 203 24 245 54 16 11 52 28 82 38 29 9 65 27 79
39 15 12 38 28 50 34 13 7 65 50 115 95 51 45 126 107 167 139 185 141 259
202 364 304 62 59 126 116 142 126 16 9 43 26 59 36 60 39 455 52 579 20 22
-6 65 -29 97 -51 53 -37 61 -40 107 -36 31 3 68 16 97 34 26 16 57 34 69 41
12 6 73 16 136 22 81 7 153 6 243 -2 99 -9 143 -8 200 1 41 7 87 23 107 36 19
13 56 35 81 49 25 14 51 33 58 41 7 8 29 20 49 26 75 24 389 184 456 233 44
33 90 80 127 129 99 133 150 187 188 198 20 6 92 13 161 16 103 5 134 10 177
30 59 27 111 31 152 9 44 -22 105 -29 145 -15 20 6 63 32 97 56 50 38 66 57
90 110 17 36 41 109 56 162 41 156 55 176 193 270 41 28 103 78 137 111 46 44
81 66 133 87 39 15 84 37 101 50 17 12 76 75 132 140 57 65 121 132 143 149
24 18 64 36 100 44 32 7 75 22 96 32 20 10 69 24 110 30 54 9 98 25 168 62 52
28 118 66 145 86 75 52 221 198 268 266 84 124 203 279 231 304 11 9 35 30 55
46 43 37 188 109 251 125 25 7 77 27 115 44 182 85 233 106 275 117 25 6 70
26 100 44 30 18 80 47 110 65 92 55 152 71 300 80 100 6 158 15 225 35 50 15
106 31 125 36 19 4 89 6 155 4 88 -2 149 -10 230 -30z m12691 -9262 c30 -19
52 -44 69 -78 55 -108 107 -191 140 -224 36 -37 82 -49 185 -50 45 -1 66 -8
115 -37 33 -20 75 -50 93 -67 27 -26 41 -32 75 -31 25 1 63 12 93 28 40 21 56
25 76 17 13 -5 38 -26 54 -46 36 -44 64 -74 96 -100 32 -27 62 -124 53 -173
-5 -28 -23 -53 -78 -105 -100 -96 -182 -155 -225 -163 -37 -7 -104 6 -240 48
-51 15 -74 30 -114 71 -28 29 -63 71 -78 94 -15 23 -42 60 -61 82 -48 57 -222
234 -304 311 -75 70 -113 133 -135 228 -20 87 5 167 63 202 18 11 43 20 56 20
13 0 43 -12 67 -27z m-507 -483 c35 -6 80 -19 100 -30 20 -10 64 -45 97 -77
107 -101 247 -196 320 -218 28 -8 67 -26 88 -40 20 -14 54 -34 74 -44 20 -11
82 -65 137 -121 55 -56 120 -116 145 -133 25 -17 65 -46 89 -65 41 -31 49 -33
100 -29 31 2 84 14 118 28 63 24 63 24 127 1 36 -12 78 -22 94 -22 16 0 46 7
65 15 44 18 115 19 153 2 16 -6 49 -24 74 -39 25 -14 72 -34 105 -44 94 -27
255 -110 303 -157 24 -23 70 -83 103 -134 33 -50 66 -94 74 -97 8 -3 21 -20
31 -38 9 -18 31 -55 50 -83 18 -27 40 -79 49 -114 19 -76 74 -188 105 -216 24
-22 24 -22 370 -17 216 4 268 -5 361 -64 73 -46 163 -131 207 -195 17 -25 55
-71 84 -101 48 -51 59 -57 125 -72 49 -11 95 -14 145 -10 66 5 78 3 122 -20
26 -15 98 -60 160 -100 61 -40 131 -83 156 -96 25 -13 59 -33 75 -45 47 -36
188 -93 260 -106 50 -10 83 -10 143 -1 55 8 90 9 122 1 47 -11 140 -74 165
-112 8 -13 21 -43 28 -68 16 -52 82 -125 142 -158 59 -31 125 -83 148 -113 13
-18 20 -43 20 -72 0 -35 -8 -56 -36 -98 -30 -43 -37 -62 -37 -101 0 -41 5 -53
39 -90 22 -24 61 -90 91 -152 28 -60 61 -120 73 -133 12 -13 38 -32 57 -42 45
-23 92 -74 118 -125 11 -22 32 -101 47 -175 22 -112 35 -151 76 -230 35 -67
49 -106 49 -135 0 -113 -112 -189 -205 -139 -16 9 -74 34 -127 54 -67 26 -113
51 -145 80 -91 80 -137 87 -196 29 -30 -30 -30 -30 -25 -269 5 -240 5 -240 44
-283 71 -81 95 -112 114 -148 10 -19 25 -41 34 -48 8 -7 48 -19 88 -28 40 -8
82 -20 93 -25 34 -18 103 -78 111 -96 4 -9 10 -60 13 -114 7 -92 9 -101 66
-211 47 -92 59 -127 63 -174 3 -43 -2 -72 -17 -111 -29 -73 -27 -132 8 -222
23 -58 32 -105 41 -209 18 -201 2 -304 -62 -403 -47 -73 -68 -127 -68 -176 0
-20 10 -76 22 -126 22 -90 22 -90 5 -330 -17 -238 -22 -280 -53 -485 -13 -84
-15 -145 -10 -315 6 -192 5 -214 -11 -246 -14 -27 -31 -39 -76 -57 -38 -14
-85 -45 -135 -89 -42 -37 -82 -74 -88 -83 -7 -9 -17 -35 -25 -59 -9 -32 -26
-54 -72 -91 -34 -28 -75 -52 -95 -56 -29 -5 -42 -1 -80 26 -31 22 -60 34 -94
37 -47 4 -50 3 -91 -39 -81 -85 -125 -201 -157 -414 -7 -44 -15 -172 -19 -285
-6 -205 -6 -205 -43 -280 -20 -41 -39 -90 -43 -108 -4 -18 -18 -46 -31 -62
-42 -49 -90 -72 -168 -80 -40 -4 -85 -13 -101 -21 -37 -17 -71 -77 -86 -149
-6 -30 -20 -78 -31 -107 -25 -69 -64 -89 -168 -86 -49 2 -92 -3 -125 -15 -36
-12 -84 -17 -175 -17 -85 0 -133 -5 -152 -14 -41 -21 -162 -212 -197 -311 -10
-30 -29 -77 -41 -103 -16 -37 -23 -80 -30 -190 -5 -78 -10 -194 -10 -257 -1
-72 -6 -128 -14 -150 -41 -105 -71 -168 -92 -193 -13 -16 -24 -32 -24 -37 0
-5 27 -49 60 -98 34 -52 64 -109 71 -138 7 -27 16 -66 21 -87 11 -47 74 -118
136 -154 37 -22 62 -27 151 -33 58 -4 119 -12 134 -18 15 -7 44 -23 65 -37 20
-14 69 -35 107 -46 50 -15 85 -34 122 -65 28 -24 61 -59 72 -78 24 -39 69 -61
103 -51 24 8 111 92 166 162 18 22 39 61 48 85 16 46 86 170 115 203 9 11 33
49 53 85 19 36 53 82 75 104 35 35 46 39 117 48 119 15 138 26 177 105 19 37
38 84 42 103 9 45 70 175 102 218 14 18 36 61 49 94 13 33 38 83 55 112 39 61
118 140 168 165 44 23 66 46 85 92 11 26 12 46 6 75 -5 21 -10 60 -10 86 0 41
5 52 34 80 21 21 65 44 117 63 76 28 85 34 109 75 15 26 35 70 45 99 18 56 64
110 117 137 26 13 51 16 127 11 139 -7 209 7 325 64 82 41 109 49 155 49 34 1
77 10 111 23 46 20 61 33 100 90 49 72 65 86 120 107 33 12 134 76 190 120 48
37 245 53 303 25 18 -9 46 -36 62 -61 17 -25 43 -52 59 -61 16 -8 65 -18 110
-23 45 -4 90 -11 101 -16 11 -4 65 -38 120 -74 55 -37 126 -82 159 -101 100
-58 150 -111 200 -210 25 -49 54 -122 65 -162 36 -134 90 -279 123 -331 18
-28 59 -83 90 -122 31 -40 66 -91 78 -114 12 -23 30 -88 41 -144 10 -55 30
-146 44 -201 32 -129 45 -335 35 -525 -12 -201 -11 -426 0 -480 6 -25 19 -65
30 -90 10 -25 28 -81 40 -124 11 -43 29 -95 40 -116 11 -21 28 -87 39 -148 10
-61 29 -132 41 -159 12 -26 28 -86 36 -132 8 -46 26 -111 38 -145 13 -34 26
-80 30 -101 3 -22 11 -157 16 -300 5 -143 17 -305 25 -360 9 -55 24 -198 35
-318 17 -202 21 -223 49 -281 29 -61 43 -113 76 -288 22 -122 52 -205 90 -258
48 -67 100 -175 124 -261 12 -42 32 -103 45 -135 13 -32 29 -93 36 -134 6 -41
21 -110 31 -153 13 -51 17 -91 13 -114 -13 -67 -53 -154 -90 -195 -20 -22 -43
-56 -51 -76 -30 -72 -55 -211 -64 -362 -5 -85 -12 -187 -15 -225 -4 -56 0 -92
20 -172 14 -56 26 -121 26 -145 0 -55 -24 -140 -55 -193 -12 -22 -35 -76 -50
-120 -15 -44 -39 -102 -53 -130 -24 -45 -27 -62 -28 -170 -2 -128 -13 -188
-43 -226 -10 -13 -26 -40 -36 -59 -9 -19 -32 -51 -50 -70 -19 -19 -72 -79
-120 -133 -48 -54 -97 -100 -111 -103 -13 -3 -97 -7 -186 -8 -154 -1 -165 0
-195 22 -17 12 -45 47 -62 77 -17 30 -35 55 -40 55 -4 0 -27 26 -51 57 -30 40
-44 71 -48 100 -4 40 -1 46 63 120 116 134 122 140 170 152 32 8 49 19 57 36
6 13 8 31 5 39 -4 9 -21 25 -39 37 -28 17 -45 20 -110 16 -69 -3 -83 -8 -150
-47 -40 -24 -88 -57 -106 -73 -19 -15 -57 -38 -86 -51 -52 -23 -106 -75 -106
-102 0 -7 26 -42 58 -77 41 -45 62 -80 75 -119 21 -68 22 -108 2 -155 -28 -68
-39 -73 -134 -73 -67 0 -93 -4 -117 -19 -42 -25 -80 -105 -101 -210 -15 -78
-15 -89 0 -171 23 -120 22 -276 -3 -376 -11 -43 -40 -119 -64 -169 -49 -99
-121 -187 -192 -233 -46 -31 -192 -84 -335 -121 -79 -21 -200 -86 -276 -148
-29 -23 -53 -57 -76 -106 -19 -40 -42 -94 -50 -122 -48 -146 -64 -470 -32
-642 13 -74 15 -104 6 -167 -6 -42 -17 -89 -25 -104 -17 -34 -89 -101 -144
-136 -67 -42 -72 -55 -72 -189 0 -131 -6 -154 -65 -235 -35 -50 -51 -63 -173
-147 -29 -20 -64 -54 -77 -76 -28 -44 -95 -99 -195 -161 -41 -25 -74 -53 -79
-68 -6 -14 -15 -61 -22 -105 -12 -91 -30 -139 -62 -173 -12 -13 -48 -38 -81
-55 -35 -19 -71 -47 -88 -71 -15 -21 -28 -44 -28 -49 0 -6 -12 -28 -26 -49
-17 -24 -46 -47 -83 -65 -31 -14 -64 -33 -73 -41 -31 -26 -19 -124 34 -278 20
-60 20 -60 -6 -113 -40 -79 -74 -91 -306 -107 -279 -19 -588 -33 -950 -44
-179 -5 -379 -16 -445 -24 -66 -8 -178 -17 -250 -21 -504 -22 -808 -38 -990
-51 -115 -8 -403 -19 -640 -24 -236 -5 -495 -14 -575 -20 -80 -5 -305 -10
-500 -9 -214 0 -399 -4 -465 -12 -76 -8 -197 -10 -392 -5 -156 4 -289 9 -297
12 -27 10 -37 60 -42 201 -2 79 -9 153 -14 163 -6 11 -21 22 -33 24 -12 3
-1205 10 -2652 16 -3575 14 -3876 17 -3980 29 -49 6 -139 11 -200 11 -60 0
-171 7 -245 15 -74 9 -302 20 -506 25 -383 10 -611 23 -677 41 -43 11 -72 48
-63 82 6 27 136 137 206 176 80 45 212 152 321 260 106 106 153 168 239 313
25 42 68 114 96 160 63 104 140 270 150 323 4 22 17 60 29 85 13 25 31 73 41
105 25 87 90 208 159 298 84 110 202 273 244 336 13 20 38 52 55 72 17 20 47
60 66 89 19 29 69 93 110 142 41 49 81 99 89 111 8 12 27 36 41 52 47 53 109
149 124 193 9 24 25 56 36 72 12 16 29 54 40 84 10 30 30 74 43 98 14 24 31
63 37 88 7 25 24 68 40 95 15 28 35 86 44 129 9 43 25 93 35 110 11 17 26 70
35 118 9 48 27 115 40 151 14 35 29 92 36 128 6 35 24 111 40 169 16 58 34
141 40 185 7 44 23 132 36 195 14 63 32 162 40 220 8 58 23 155 34 215 119
665 145 905 120 1110 -49 421 -70 631 -80 800 -6 110 -18 232 -25 270 -37 186
-66 311 -89 383 -13 43 -30 107 -36 142 -6 36 -25 103 -41 150 -16 47 -37 112
-45 145 -9 33 -22 71 -29 85 -16 29 -80 166 -119 255 -15 33 -33 67 -41 75 -8
9 -24 42 -35 74 -11 32 -30 70 -44 86 -13 16 -32 53 -41 81 -10 29 -28 67 -41
86 -12 19 -28 51 -35 71 -6 20 -22 57 -34 82 -27 54 -98 294 -121 405 -8 44
-19 86 -24 95 -4 8 -25 78 -45 155 -69 261 -122 417 -182 535 -32 63 -67 138
-77 165 -11 28 -29 68 -41 90 -13 22 -33 85 -45 140 -12 55 -28 122 -37 148
-11 36 -14 75 -10 150 4 84 11 118 40 195 19 50 50 118 68 149 34 57 135 166
198 212 18 13 43 40 56 60 36 54 94 259 107 375 9 83 8 133 -6 281 -21 226
-53 479 -72 569 -9 44 -42 125 -94 230 -69 140 -82 174 -92 246 -9 64 -9 93 1
129 17 66 85 130 208 198 85 46 109 65 144 112 23 31 51 76 62 100 10 24 32
64 48 89 16 25 29 54 29 63 0 9 15 39 33 65 18 27 39 69 46 94 7 25 23 63 36
85 12 22 28 58 34 80 11 36 77 181 118 260 19 36 29 57 81 161 22 45 62 115
89 155 72 110 121 214 143 304 27 107 29 196 5 265 -12 33 -19 81 -19 120 0
61 5 75 73 207 70 137 73 145 83 244 5 57 8 164 6 238 -3 136 -3 136 -45 211
-55 101 -87 201 -88 275 0 45 7 73 27 115 40 82 90 136 146 156 26 9 71 27
101 41 30 13 85 30 123 38 37 7 109 30 160 50 80 32 100 45 145 94 66 71 113
176 113 253 0 29 -7 108 -17 175 -14 102 -15 139 -6 232 10 98 15 118 44 166
24 39 45 61 74 75 23 11 52 20 65 20 13 0 52 -7 87 -16 57 -14 66 -14 87 -1
15 10 37 50 61 114 31 77 48 107 83 140 24 23 59 47 79 54 19 6 66 9 103 7 64
-3 72 -7 131 -52 34 -27 82 -57 106 -68 41 -18 44 -18 80 -1 88 41 157 149
172 269 5 38 18 88 30 110 20 39 156 183 282 301 55 51 71 73 93 130 14 37 37
112 51 167 13 54 34 117 45 140 29 61 101 138 156 168 27 14 78 32 114 39 57
11 72 19 124 66 33 30 74 62 92 71 28 13 40 13 71 4 29 -9 49 -27 82 -73 57
-79 65 -133 28 -211 -31 -68 -77 -129 -119 -162 -21 -16 -62 -31 -109 -41 -55
-11 -80 -22 -96 -41 -13 -14 -23 -38 -23 -53 0 -28 36 -86 96 -153 19 -21 49
-69 69 -108 68 -134 55 -199 -50 -258 -73 -41 -99 -65 -116 -104 -10 -24 -9
-50 1 -131 23 -186 23 -238 0 -334 -19 -77 -28 -93 -64 -128 -51 -50 -96 -156
-104 -243 -4 -54 0 -79 28 -165 19 -56 35 -104 36 -106 2 -2 14 -1 27 3 19 4
32 24 60 93 39 93 77 229 77 272 0 14 -7 55 -17 91 -16 65 -16 65 17 148 18
45 37 85 42 88 4 3 20 29 35 57 14 29 34 62 44 75 10 13 25 48 34 78 8 29 29
70 46 89 45 51 146 105 197 105 50 0 73 -21 111 -100 20 -42 26 -70 25 -120 0
-39 -7 -77 -16 -95 -9 -16 -35 -41 -57 -55 -22 -13 -46 -38 -53 -55 -15 -35
-15 -62 -1 -243 10 -139 22 -174 48 -138 8 10 20 44 26 75 7 31 22 74 35 96
12 22 27 58 34 80 7 22 45 101 85 175 40 74 78 158 85 187 16 73 15 225 -3
304 -18 79 -10 133 28 209 37 73 41 122 16 221 -11 46 -25 140 -31 209 -5 69
-21 168 -35 220 -14 53 -25 123 -25 160 0 71 29 228 58 313 10 30 34 80 53
112 25 43 52 69 104 105 39 26 81 60 95 75 48 52 107 85 190 104 45 11 94 28
109 38 16 10 52 45 80 79 36 44 70 71 119 97 100 53 178 64 344 49 157 -14
280 -16 438 -8 162 8 214 20 261 64 30 26 39 42 37 60 -2 14 -16 34 -31 46
-26 19 -42 21 -176 21 -158 0 -141 -4 -232 60 -16 11 -51 47 -78 80 -28 33
-64 76 -80 95 -71 82 -106 140 -142 231 -21 53 -43 134 -50 178 -16 111 -8
296 15 339 9 18 43 59 74 90 76 77 118 131 142 184 11 24 27 52 37 60 10 9 50
27 88 39 79 25 120 55 248 180 78 75 89 91 94 128 5 37 2 46 -24 74 -48 50
-66 94 -60 144 2 23 12 54 22 69 20 31 77 56 127 56 20 0 65 -12 100 -26 71
-28 103 -32 203 -21 65 6 73 5 108 -19 28 -19 51 -26 87 -26 40 0 52 4 69 25
13 17 22 49 26 93 4 37 9 74 11 84 6 21 68 47 114 47 19 1 64 -4 99 -9z
m-3055 -192 c51 -17 82 -34 112 -63 37 -35 43 -48 53 -110 11 -59 12 -132 8
-322 0 -16 3 -89 8 -163 11 -195 10 -198 -136 -341 -79 -78 -131 -121 -155
-129 -51 -17 -134 -8 -238 26 -72 24 -95 36 -126 70 -73 80 -76 174 -8 302 30
58 40 90 44 141 3 36 20 107 36 156 23 67 41 101 71 132 28 29 42 54 48 86 10
55 71 187 96 209 10 8 25 18 33 21 32 12 86 6 154 -15z m-1882 -3305 c66 -30
83 -66 79 -168 -7 -154 -5 -191 13 -277 19 -87 19 -87 -4 -150 -12 -35 -32
-76 -43 -92 -24 -34 -89 -65 -135 -66 -44 0 -94 22 -119 53 -10 14 -25 50 -32
81 -11 50 -19 61 -83 118 -43 38 -78 79 -89 103 -9 22 -22 73 -29 114 -10 57
-10 87 0 134 7 34 18 73 25 87 36 70 99 91 255 87 90 -3 125 -8 162 -24z
m-466 -614 c17 -8 39 -33 52 -59 20 -38 23 -56 19 -116 -3 -53 -11 -83 -32
-122 -36 -67 -82 -96 -150 -96 -27 0 -67 6 -89 13 -31 11 -42 22 -59 60 -29
61 -30 179 -3 234 43 88 170 130 262 86z"/>
    <path d="M29170 23815 c-28 -24 -63 -51 -79 -60 -30 -15 -34 -23 -46 -83 -5
-23 -3 -34 7 -37 17 -7 104 44 170 98 25 21 49 49 52 63 8 31 -9 64 -34 64
-11 0 -42 -20 -70 -45z"/>
    <path d="M28993 23598 c-15 -19 -33 -78 -33 -107 0 -31 25 -71 44 -71 7 0 18
11 24 25 13 28 16 105 6 143 -7 24 -26 29 -41 10z"/>
  </g>
</svg>